<svg xmlns="http://www.w3.org/2000/svg" xmlns:xlink="http://www.w3.org/1999/xlink" width="1366" zoomAndPan="magnify" viewBox="0 0 1024.5 576" height="768" preserveAspectRatio="xMidYMid meet" version="1.0"><defs><clipPath id="c50d469d6b"><path d="M 248.285156 24.285156 L 775.714844 24.285156 L 775.714844 551.714844 L 248.285156 551.714844 Z M 248.285156 24.285156 " clip-rule="nonzero"/></clipPath><clipPath id="87b0abe73d"><path d="M 512 24.285156 C 366.355469 24.285156 248.285156 142.355469 248.285156 288 C 248.285156 433.644531 366.355469 551.714844 512 551.714844 C 657.644531 551.714844 775.714844 433.644531 775.714844 288 C 775.714844 142.355469 657.644531 24.285156 512 24.285156 Z M 512 24.285156 " clip-rule="nonzero"/></clipPath><clipPath id="c28bd17229"><path d="M 641 220 L 719.550781 220 L 719.550781 265 L 641 265 Z M 641 220 " clip-rule="nonzero"/></clipPath><clipPath id="e5d3f4d3f2"><path d="M 304.253906 311 L 383 311 L 383 356 L 304.253906 356 Z M 304.253906 311 " clip-rule="nonzero"/></clipPath><clipPath id="fd7cab8372"><path d="M 641 311 L 719.550781 311 L 719.550781 356 L 641 356 Z M 641 311 " clip-rule="nonzero"/></clipPath><clipPath id="e73d55dd74"><path d="M 304.253906 220 L 383 220 L 383 265 L 304.253906 265 Z M 304.253906 220 " clip-rule="nonzero"/></clipPath><clipPath id="c90592af1b"><path d="M 489 69.511719 L 535 69.511719 L 535 145 L 489 145 Z M 489 69.511719 " clip-rule="nonzero"/></clipPath><clipPath id="b7d5891cf2"><path d="M 489 431 L 535 431 L 535 506.550781 L 489 506.550781 Z M 489 431 " clip-rule="nonzero"/></clipPath></defs><g clip-path="url(#c50d469d6b)"><g clip-path="url(#87b0abe73d)"><path fill="#181d47" d="M 248.285156 24.285156 L 775.714844 24.285156 L 775.714844 551.714844 L 248.285156 551.714844 Z M 248.285156 24.285156 " fill-opacity="1" fill-rule="nonzero"/></g></g><g clip-path="url(#c28bd17229)"><path fill="#ffffff" d="M 641.8125 222.640625 C 642.152344 223.292969 642.464844 223.972656 642.804688 224.625 C 643.121094 225.28125 643.433594 225.960938 643.75 226.613281 C 648.667969 237.175781 652.375 248.4375 654.652344 260.1875 C 654.796875 260.914062 654.941406 261.617188 655.0625 262.34375 C 655.183594 263.070312 655.304688 263.796875 655.425781 264.546875 L 719.738281 220.484375 Z M 641.8125 222.640625 " fill-opacity="1" fill-rule="nonzero"/></g><g clip-path="url(#e5d3f4d3f2)"><path fill="#ffffff" d="M 381.191406 351.339844 C 380.875 350.6875 380.558594 350.007812 380.246094 349.355469 C 375.328125 338.792969 371.621094 327.527344 369.34375 315.78125 C 369.199219 315.054688 369.054688 314.351562 368.933594 313.625 C 368.8125 312.898438 368.691406 312.171875 368.570312 311.421875 L 304.253906 355.484375 L 382.183594 353.328125 C 381.84375 352.671875 381.503906 352.019531 381.191406 351.339844 Z M 381.191406 351.339844 " fill-opacity="1" fill-rule="nonzero"/></g><g clip-path="url(#fd7cab8372)"><path fill="#ffffff" d="M 655.425781 311.421875 C 655.304688 312.148438 655.183594 312.898438 655.0625 313.625 C 654.941406 314.351562 654.796875 315.078125 654.652344 315.78125 C 652.375 327.527344 648.667969 338.792969 643.75 349.355469 C 643.433594 350.007812 643.121094 350.6875 642.804688 351.339844 C 642.492188 352.019531 642.152344 352.671875 641.8125 353.328125 L 719.738281 355.484375 Z M 655.425781 311.421875 " fill-opacity="1" fill-rule="nonzero"/></g><g clip-path="url(#e73d55dd74)"><path fill="#ffffff" d="M 368.933594 262.367188 C 369.054688 261.640625 369.199219 260.914062 369.34375 260.210938 C 371.621094 248.460938 375.328125 237.199219 380.246094 226.636719 C 380.558594 225.984375 380.875 225.304688 381.191406 224.652344 C 381.503906 223.972656 381.84375 223.320312 382.183594 222.664062 L 304.253906 220.507812 L 368.570312 264.570312 C 368.691406 263.820312 368.8125 263.09375 368.933594 262.367188 Z M 368.933594 262.367188 " fill-opacity="1" fill-rule="nonzero"/></g><path fill="#ffffff" d="M 612.671875 392.789062 C 612.136719 393.296875 611.605469 393.804688 611.074219 394.289062 C 602.472656 402.308594 592.878906 409.308594 582.511719 415.074219 C 581.882812 415.4375 581.230469 415.777344 580.574219 416.140625 C 579.921875 416.476562 579.265625 416.839844 578.613281 417.179688 L 640.382812 464.730469 L 614.246094 391.261719 C 613.738281 391.769531 613.203125 392.277344 612.671875 392.789062 Z M 612.671875 392.789062 " fill-opacity="1" fill-rule="nonzero"/><path fill="#ffffff" d="M 409.75 184.753906 C 410.28125 184.222656 410.816406 183.714844 411.347656 183.203125 C 411.882812 182.695312 412.414062 182.1875 412.945312 181.703125 C 421.546875 173.683594 431.140625 166.683594 441.507812 160.917969 C 442.136719 160.554688 442.789062 160.214844 443.445312 159.851562 C 444.097656 159.511719 444.753906 159.148438 445.40625 158.8125 L 383.636719 111.261719 Z M 409.75 184.753906 " fill-opacity="1" fill-rule="nonzero"/><g clip-path="url(#c90592af1b)"><path fill="#ffffff" d="M 489.953125 144.324219 C 490.679688 144.203125 491.40625 144.105469 492.160156 144.011719 C 492.886719 143.914062 493.613281 143.816406 494.339844 143.71875 C 500.128906 143.015625 506.015625 142.652344 511.996094 142.652344 C 517.980469 142.652344 523.867188 143.015625 529.65625 143.71875 C 530.382812 143.816406 531.109375 143.914062 531.835938 144.011719 C 532.5625 144.105469 533.289062 144.203125 534.042969 144.324219 L 511.996094 69.546875 Z M 489.953125 144.324219 " fill-opacity="1" fill-rule="nonzero"/></g><path fill="#ffffff" d="M 580.574219 159.851562 C 581.230469 160.191406 581.859375 160.554688 582.511719 160.917969 C 592.878906 166.683594 602.449219 173.660156 611.074219 181.703125 C 611.605469 182.210938 612.136719 182.695312 612.671875 183.203125 C 613.203125 183.714844 613.738281 184.246094 614.269531 184.753906 L 640.40625 111.285156 L 578.636719 158.835938 C 579.265625 159.148438 579.921875 159.511719 580.574219 159.851562 Z M 580.574219 159.851562 " fill-opacity="1" fill-rule="nonzero"/><path fill="#ffffff" d="M 412.921875 394.3125 C 412.390625 393.804688 411.855469 393.320312 411.324219 392.8125 C 410.789062 392.304688 410.257812 391.769531 409.726562 391.261719 L 383.585938 464.730469 L 445.359375 417.179688 C 444.703125 416.839844 444.050781 416.503906 443.394531 416.140625 C 442.742188 415.800781 442.113281 415.4375 441.457031 415.074219 C 431.113281 409.308594 421.546875 402.332031 412.921875 394.3125 Z M 412.921875 394.3125 " fill-opacity="1" fill-rule="nonzero"/><g clip-path="url(#b7d5891cf2)"><path fill="#ffffff" d="M 534.042969 431.667969 C 533.3125 431.789062 532.585938 431.882812 531.835938 431.980469 C 531.109375 432.078125 530.382812 432.175781 529.65625 432.273438 C 523.867188 432.976562 517.980469 433.339844 511.996094 433.339844 C 506.015625 433.339844 500.128906 432.976562 494.339844 432.273438 C 493.613281 432.175781 492.886719 432.078125 492.160156 431.980469 C 491.429688 431.882812 490.703125 431.789062 489.953125 431.667969 L 511.996094 506.445312 Z M 534.042969 431.667969 " fill-opacity="1" fill-rule="nonzero"/></g><path fill="#ffffff" d="M 633.066406 287.996094 C 633.066406 289.976562 633.019531 291.957031 632.921875 293.9375 C 632.824219 295.914062 632.679688 297.890625 632.484375 299.863281 C 632.289062 301.835938 632.046875 303.800781 631.757812 305.761719 C 631.464844 307.71875 631.128906 309.671875 630.742188 311.617188 C 630.355469 313.558594 629.921875 315.492188 629.4375 317.414062 C 628.957031 319.335938 628.429688 321.246094 627.855469 323.140625 C 627.277344 325.035156 626.65625 326.917969 625.988281 328.78125 C 625.324219 330.648438 624.609375 332.496094 623.851562 334.328125 C 623.09375 336.15625 622.289062 337.96875 621.445312 339.761719 C 620.597656 341.550781 619.707031 343.320312 618.773438 345.066406 C 617.835938 346.816406 616.859375 348.539062 615.84375 350.238281 C 614.824219 351.9375 613.765625 353.609375 612.664062 355.257812 C 611.5625 356.90625 610.421875 358.527344 609.242188 360.117188 C 608.0625 361.707031 606.84375 363.269531 605.585938 364.800781 C 604.328125 366.332031 603.035156 367.832031 601.703125 369.300781 C 600.375 370.769531 599.007812 372.203125 597.605469 373.605469 C 596.207031 375.007812 594.769531 376.371094 593.304688 377.703125 C 591.835938 379.035156 590.335938 380.328125 588.804688 381.585938 C 587.273438 382.839844 585.710938 384.058594 584.117188 385.238281 C 582.527344 386.421875 580.90625 387.5625 579.261719 388.660156 C 577.613281 389.761719 575.9375 390.824219 574.238281 391.839844 C 572.539062 392.859375 570.816406 393.835938 569.070312 394.769531 C 567.320312 395.703125 565.550781 396.59375 563.761719 397.441406 C 561.96875 398.289062 560.160156 399.089844 558.328125 399.851562 C 556.5 400.609375 554.648438 401.320312 552.785156 401.988281 C 550.917969 402.65625 549.039062 403.277344 547.140625 403.851562 C 545.246094 404.429688 543.335938 404.957031 541.414062 405.4375 C 539.492188 405.917969 537.558594 406.351562 535.617188 406.738281 C 533.671875 407.125 531.722656 407.464844 529.761719 407.753906 C 527.800781 408.046875 525.835938 408.289062 523.863281 408.484375 C 521.890625 408.675781 519.917969 408.824219 517.9375 408.921875 C 515.960938 409.015625 513.980469 409.066406 511.996094 409.066406 C 510.015625 409.066406 508.035156 409.015625 506.058594 408.921875 C 504.078125 408.824219 502.101562 408.675781 500.128906 408.484375 C 498.160156 408.289062 496.191406 408.046875 494.234375 407.753906 C 492.273438 407.464844 490.320312 407.125 488.378906 406.738281 C 486.433594 406.351562 484.5 405.917969 482.578125 405.4375 C 480.65625 404.957031 478.75 404.429688 476.851562 403.851562 C 474.957031 403.277344 473.074219 402.65625 471.210938 401.988281 C 469.34375 401.320312 467.496094 400.609375 465.664062 399.851562 C 463.835938 399.089844 462.023438 398.289062 460.234375 397.441406 C 458.441406 396.59375 456.671875 395.703125 454.925781 394.769531 C 453.179688 393.835938 451.453125 392.859375 449.753906 391.839844 C 448.054688 390.824219 446.382812 389.761719 444.734375 388.660156 C 443.085938 387.5625 441.46875 386.421875 439.875 385.242188 C 438.285156 384.058594 436.722656 382.839844 435.191406 381.585938 C 433.660156 380.328125 432.160156 379.035156 430.691406 377.703125 C 429.222656 376.371094 427.789062 375.007812 426.386719 373.605469 C 424.988281 372.203125 423.621094 370.769531 422.289062 369.300781 C 420.960938 367.832031 419.667969 366.332031 418.410156 364.800781 C 417.152344 363.269531 415.933594 361.707031 414.753906 360.117188 C 413.574219 358.527344 412.433594 356.90625 411.332031 355.257812 C 410.230469 353.609375 409.171875 351.9375 408.152344 350.238281 C 407.132812 348.539062 406.15625 346.816406 405.222656 345.066406 C 404.289062 343.320312 403.398438 341.550781 402.550781 339.761719 C 401.703125 337.96875 400.902344 336.15625 400.144531 334.328125 C 399.386719 332.496094 398.671875 330.648438 398.003906 328.78125 C 397.335938 326.917969 396.714844 325.035156 396.140625 323.140625 C 395.566406 321.246094 395.039062 319.335938 394.554688 317.414062 C 394.074219 315.492188 393.640625 313.558594 393.253906 311.617188 C 392.867188 309.671875 392.527344 307.71875 392.238281 305.761719 C 391.945312 303.800781 391.703125 301.835938 391.511719 299.863281 C 391.316406 297.890625 391.171875 295.914062 391.074219 293.9375 C 390.976562 291.957031 390.925781 289.976562 390.925781 287.996094 C 390.925781 286.015625 390.976562 284.035156 391.074219 282.054688 C 391.171875 280.078125 391.316406 278.101562 391.511719 276.128906 C 391.703125 274.15625 391.945312 272.191406 392.238281 270.230469 C 392.527344 268.269531 392.867188 266.320312 393.253906 264.375 C 393.640625 262.433594 394.074219 260.5 394.554688 258.578125 C 395.039062 256.65625 395.566406 254.746094 396.140625 252.851562 C 396.714844 250.957031 397.335938 249.074219 398.003906 247.207031 C 398.671875 245.34375 399.386719 243.496094 400.144531 241.664062 C 400.902344 239.832031 401.703125 238.023438 402.550781 236.230469 C 403.398438 234.441406 404.289062 232.671875 405.222656 230.925781 C 406.15625 229.175781 407.132812 227.453125 408.152344 225.753906 C 409.171875 224.054688 410.230469 222.378906 411.332031 220.734375 C 412.433594 219.085938 413.574219 217.464844 414.753906 215.875 C 415.933594 214.28125 417.152344 212.722656 418.410156 211.191406 C 419.667969 209.660156 420.960938 208.160156 422.289062 206.691406 C 423.621094 205.222656 424.988281 203.789062 426.386719 202.386719 C 427.789062 200.984375 429.222656 199.621094 430.691406 198.289062 C 432.160156 196.957031 433.660156 195.664062 435.191406 194.40625 C 436.722656 193.152344 438.285156 191.933594 439.875 190.75 C 441.46875 189.570312 443.085938 188.429688 444.734375 187.328125 C 446.382812 186.230469 448.054688 185.167969 449.753906 184.152344 C 451.453125 183.132812 453.179688 182.15625 454.925781 181.222656 C 456.671875 180.289062 458.441406 179.398438 460.234375 178.550781 C 462.023438 177.703125 463.835938 176.898438 465.664062 176.140625 C 467.496094 175.382812 469.34375 174.671875 471.210938 174.003906 C 473.074219 173.335938 474.957031 172.714844 476.851562 172.140625 C 478.75 171.5625 480.65625 171.035156 482.578125 170.554688 C 484.5 170.074219 486.433594 169.640625 488.378906 169.253906 C 490.320312 168.867188 492.273438 168.527344 494.234375 168.234375 C 496.191406 167.945312 498.160156 167.703125 500.128906 167.507812 C 502.101562 167.316406 504.078125 167.167969 506.058594 167.070312 C 508.035156 166.972656 510.015625 166.925781 511.996094 166.925781 C 513.980469 166.925781 515.960938 166.972656 517.9375 167.070312 C 519.917969 167.167969 521.890625 167.316406 523.863281 167.507812 C 525.835938 167.703125 527.800781 167.945312 529.761719 168.234375 C 531.722656 168.527344 533.671875 168.867188 535.617188 169.253906 C 537.558594 169.640625 539.492188 170.074219 541.414062 170.554688 C 543.335938 171.035156 545.246094 171.5625 547.140625 172.140625 C 549.039062 172.714844 550.917969 173.335938 552.785156 174.003906 C 554.648438 174.671875 556.5 175.382812 558.328125 176.140625 C 560.160156 176.898438 561.96875 177.703125 563.761719 178.550781 C 565.550781 179.398438 567.320312 180.289062 569.070312 181.222656 C 570.816406 182.15625 572.539062 183.132812 574.238281 184.152344 C 575.9375 185.167969 577.613281 186.230469 579.261719 187.328125 C 580.90625 188.429688 582.527344 189.570312 584.117188 190.75 C 585.710938 191.933594 587.273438 193.152344 588.804688 194.40625 C 590.335938 195.664062 591.835938 196.957031 593.304688 198.289062 C 594.769531 199.621094 596.207031 200.984375 597.605469 202.386719 C 599.007812 203.789062 600.375 205.222656 601.703125 206.691406 C 603.035156 208.160156 604.328125 209.660156 605.585938 211.191406 C 606.84375 212.722656 608.0625 214.28125 609.242188 215.875 C 610.421875 217.464844 611.5625 219.085938 612.664062 220.734375 C 613.765625 222.378906 614.824219 224.054688 615.84375 225.753906 C 616.859375 227.453125 617.835938 229.175781 618.773438 230.925781 C 619.707031 232.671875 620.597656 234.441406 621.445312 236.230469 C 622.289062 238.023438 623.09375 239.832031 623.851562 241.664062 C 624.609375 243.496094 625.324219 245.34375 625.988281 247.207031 C 626.65625 249.074219 627.277344 250.957031 627.855469 252.851562 C 628.429688 254.746094 628.957031 256.65625 629.4375 258.578125 C 629.921875 260.5 630.355469 262.433594 630.742188 264.375 C 631.128906 266.320312 631.464844 268.269531 631.757812 270.230469 C 632.046875 272.191406 632.289062 274.15625 632.484375 276.128906 C 632.679688 278.101562 632.824219 280.078125 632.921875 282.054688 C 633.019531 284.035156 633.066406 286.015625 633.066406 287.996094 Z M 633.066406 287.996094 " fill-opacity="1" fill-rule="nonzero"/></svg>