<svg xmlns="http://www.w3.org/2000/svg" xmlns:xlink="http://www.w3.org/1999/xlink" width="1366" zoomAndPan="magnify" viewBox="0 0 1024.5 576" height="768" preserveAspectRatio="xMidYMid meet" version="1.0"><defs><clipPath id="ae6ef4d913"><path d="M 248.285156 24.285156 L 775.714844 24.285156 L 775.714844 551.714844 L 248.285156 551.714844 Z M 248.285156 24.285156 " clip-rule="nonzero"/></clipPath><clipPath id="4882888cd5"><path d="M 512 24.285156 C 366.355469 24.285156 248.285156 142.355469 248.285156 288 C 248.285156 433.644531 366.355469 551.714844 512 551.714844 C 657.644531 551.714844 775.714844 433.644531 775.714844 288 C 775.714844 142.355469 657.644531 24.285156 512 24.285156 Z M 512 24.285156 " clip-rule="nonzero"/></clipPath><clipPath id="23391f0caa"><path d="M 310.601562 77.105469 L 713.152344 77.105469 L 713.152344 496 L 310.601562 496 Z M 310.601562 77.105469 " clip-rule="nonzero"/></clipPath></defs><g clip-path="url(#ae6ef4d913)"><g clip-path="url(#4882888cd5)"><path fill="#ffffff" d="M 248.285156 24.285156 L 775.714844 24.285156 L 775.714844 551.714844 L 248.285156 551.714844 Z M 248.285156 24.285156 " fill-opacity="1" fill-rule="nonzero"/></g></g><g clip-path="url(#23391f0caa)"><path fill="#181d47" d="M 713.496094 366.484375 C 684.921875 386.40625 650.171875 398.085938 612.699219 398.085938 C 515.234375 398.085938 436.226562 319.074219 436.226562 221.613281 C 436.226562 161.925781 465.855469 109.160156 511.210938 77.222656 C 399.640625 81.816406 310.601562 173.71875 310.601562 286.417969 C 310.601562 402.054688 404.339844 495.796875 519.976562 495.796875 C 607.25 495.796875 682.058594 442.394531 713.496094 366.484375 Z M 713.496094 366.484375 " fill-opacity="1" fill-rule="evenodd"/></g></svg>