<svg xmlns="http://www.w3.org/2000/svg" xmlns:xlink="http://www.w3.org/1999/xlink" width="1366" zoomAndPan="magnify" viewBox="0 0 1024.5 576" height="768" preserveAspectRatio="xMidYMid meet" version="1.0"><defs><clipPath id="cda1ae74c5"><path d="M 279.554688 57.710938 L 739.539062 57.710938 L 739.539062 517.988281 L 279.554688 517.988281 Z M 279.554688 57.710938 " clip-rule="nonzero"/></clipPath></defs><g clip-path="url(#cda1ae74c5)"><path fill="#ffffff" d="M 509.546875 57.710938 C 513.316406 57.710938 517.082031 57.804688 520.847656 57.988281 C 524.609375 58.175781 528.367188 58.453125 532.117188 58.820312 C 535.867188 59.191406 539.609375 59.652344 543.335938 60.203125 C 547.0625 60.757812 550.777344 61.402344 554.472656 62.136719 C 558.167969 62.871094 561.84375 63.699219 565.5 64.613281 C 569.15625 65.53125 572.789062 66.535156 576.394531 67.628906 C 580 68.722656 583.578125 69.902344 587.128906 71.175781 C 590.675781 72.445312 594.191406 73.800781 597.671875 75.242188 C 601.15625 76.683594 604.597656 78.210938 608.003906 79.820312 C 611.414062 81.433594 614.777344 83.128906 618.101562 84.902344 C 621.425781 86.679688 624.703125 88.539062 627.9375 90.476562 C 631.167969 92.414062 634.351562 94.429688 637.484375 96.523438 C 640.621094 98.617188 643.699219 100.785156 646.726562 103.03125 C 649.753906 105.277344 652.722656 107.59375 655.636719 109.984375 C 658.550781 112.375 661.402344 114.835938 664.195312 117.367188 C 666.988281 119.898438 669.71875 122.496094 672.382812 125.160156 C 675.046875 127.824219 677.644531 130.554688 680.175781 133.347656 C 682.707031 136.140625 685.167969 138.992188 687.558594 141.90625 C 689.949219 144.820312 692.265625 147.789062 694.511719 150.816406 C 696.757812 153.84375 698.925781 156.925781 701.019531 160.058594 C 703.113281 163.191406 705.128906 166.375 707.066406 169.605469 C 709.003906 172.839844 710.863281 176.117188 712.640625 179.441406 C 714.414062 182.765625 716.109375 186.128906 717.722656 189.539062 C 719.332031 192.945312 720.859375 196.390625 722.300781 199.871094 C 723.742188 203.351562 725.097656 206.867188 726.371094 210.417969 C 727.640625 213.964844 728.820312 217.542969 729.914062 221.148438 C 731.007812 224.753906 732.011719 228.386719 732.929688 232.042969 C 733.84375 235.699219 734.671875 239.375 735.40625 243.070312 C 736.140625 246.765625 736.785156 250.480469 737.339844 254.207031 C 737.890625 257.933594 738.351562 261.675781 738.722656 265.425781 C 739.089844 269.175781 739.367188 272.933594 739.554688 276.695312 C 739.738281 280.460938 739.832031 284.226562 739.832031 287.996094 C 739.832031 291.765625 739.738281 295.53125 739.554688 299.296875 C 739.367188 303.058594 739.089844 306.816406 738.722656 310.566406 C 738.351562 314.320312 737.890625 318.058594 737.339844 321.785156 C 736.785156 325.515625 736.140625 329.226562 735.40625 332.921875 C 734.671875 336.617188 733.84375 340.296875 732.929688 343.949219 C 732.011719 347.605469 731.007812 351.238281 729.914062 354.84375 C 728.820312 358.449219 727.640625 362.027344 726.371094 365.578125 C 725.097656 369.125 723.742188 372.640625 722.300781 376.121094 C 720.859375 379.605469 719.332031 383.046875 717.722656 386.457031 C 716.109375 389.863281 714.414062 393.226562 712.640625 396.550781 C 710.863281 399.875 709.003906 403.152344 707.066406 406.386719 C 705.128906 409.617188 703.113281 412.800781 701.019531 415.933594 C 698.925781 419.070312 696.757812 422.148438 694.511719 425.175781 C 692.265625 428.203125 689.949219 431.175781 687.558594 434.085938 C 685.167969 437 682.707031 439.851562 680.175781 442.644531 C 677.644531 445.4375 675.046875 448.167969 672.382812 450.832031 C 669.71875 453.496094 666.988281 456.09375 664.195312 458.625 C 661.402344 461.15625 658.550781 463.617188 655.636719 466.007812 C 652.722656 468.398438 649.753906 470.71875 646.726562 472.960938 C 643.699219 475.207031 640.621094 477.375 637.484375 479.46875 C 634.351562 481.566406 631.167969 483.582031 627.9375 485.519531 C 624.703125 487.457031 621.425781 489.3125 618.101562 491.089844 C 614.777344 492.867188 611.414062 494.558594 608.003906 496.171875 C 604.597656 497.78125 601.15625 499.308594 597.671875 500.75 C 594.191406 502.195312 590.675781 503.550781 587.128906 504.820312 C 583.578125 506.089844 580 507.269531 576.394531 508.363281 C 572.789062 509.457031 569.15625 510.464844 565.5 511.378906 C 561.84375 512.296875 558.167969 513.121094 554.472656 513.855469 C 550.777344 514.589844 547.0625 515.234375 543.335938 515.789062 C 539.609375 516.339844 535.867188 516.800781 532.117188 517.171875 C 528.367188 517.542969 524.609375 517.816406 520.847656 518.003906 C 517.082031 518.1875 513.316406 518.28125 509.546875 518.28125 C 505.777344 518.28125 502.011719 518.1875 498.246094 518.003906 C 494.484375 517.816406 490.726562 517.542969 486.976562 517.171875 C 483.222656 516.800781 479.484375 516.339844 475.757812 515.789062 C 472.027344 515.234375 468.316406 514.589844 464.621094 513.855469 C 460.925781 513.121094 457.246094 512.296875 453.59375 511.378906 C 449.9375 510.464844 446.304688 509.457031 442.699219 508.363281 C 439.09375 507.269531 435.515625 506.089844 431.964844 504.820312 C 428.417969 503.550781 424.902344 502.195312 421.421875 500.75 C 417.9375 499.308594 414.496094 497.78125 411.085938 496.171875 C 407.679688 494.558594 404.316406 492.867188 400.992188 491.089844 C 397.667969 489.3125 394.390625 487.457031 391.15625 485.519531 C 387.925781 483.582031 384.742188 481.566406 381.609375 479.46875 C 378.472656 477.375 375.394531 475.207031 372.367188 472.960938 C 369.339844 470.71875 366.371094 468.398438 363.457031 466.007812 C 360.542969 463.617188 357.691406 461.15625 354.898438 458.625 C 352.105469 456.09375 349.375 453.496094 346.710938 450.832031 C 344.046875 448.167969 341.449219 445.4375 338.917969 442.644531 C 336.386719 439.851562 333.925781 437 331.535156 434.085938 C 329.144531 431.175781 326.824219 428.203125 324.582031 425.175781 C 322.335938 422.148438 320.167969 419.070312 318.074219 415.933594 C 315.980469 412.800781 313.964844 409.617188 312.023438 406.386719 C 310.085938 403.152344 308.230469 399.875 306.453125 396.550781 C 304.675781 393.226562 302.984375 389.863281 301.371094 386.457031 C 299.761719 383.046875 298.234375 379.605469 296.792969 376.121094 C 295.351562 372.640625 293.992188 369.125 292.722656 365.578125 C 291.453125 362.027344 290.273438 358.449219 289.179688 354.84375 C 288.085938 351.238281 287.078125 347.605469 286.164062 343.949219 C 285.25 340.296875 284.421875 336.617188 283.6875 332.921875 C 282.953125 329.226562 282.308594 325.515625 281.753906 321.785156 C 281.203125 318.058594 280.742188 314.320312 280.371094 310.566406 C 280.003906 306.816406 279.726562 303.058594 279.539062 299.296875 C 279.355469 295.53125 279.261719 291.765625 279.261719 287.996094 C 279.261719 284.226562 279.355469 280.460938 279.539062 276.695312 C 279.726562 272.933594 280.003906 269.175781 280.371094 265.425781 C 280.742188 261.675781 281.203125 257.933594 281.753906 254.207031 C 282.308594 250.480469 282.953125 246.765625 283.6875 243.070312 C 284.421875 239.375 285.25 235.699219 286.164062 232.042969 C 287.078125 228.386719 288.085938 224.753906 289.179688 221.148438 C 290.273438 217.542969 291.453125 213.964844 292.722656 210.417969 C 293.992188 206.867188 295.351562 203.351562 296.792969 199.871094 C 298.234375 196.390625 299.761719 192.945312 301.371094 189.539062 C 302.984375 186.128906 304.675781 182.765625 306.453125 179.441406 C 308.230469 176.117188 310.085938 172.839844 312.023438 169.605469 C 313.964844 166.375 315.980469 163.191406 318.074219 160.058594 C 320.167969 156.925781 322.335938 153.84375 324.582031 150.816406 C 326.824219 147.789062 329.144531 144.820312 331.535156 141.90625 C 333.925781 138.992188 336.386719 136.140625 338.917969 133.347656 C 341.449219 130.554688 344.046875 127.824219 346.710938 125.160156 C 349.375 122.496094 352.105469 119.898438 354.898438 117.367188 C 357.691406 114.835938 360.542969 112.375 363.457031 109.984375 C 366.371094 107.59375 369.339844 105.277344 372.367188 103.03125 C 375.394531 100.785156 378.472656 98.617188 381.609375 96.523438 C 384.742188 94.429688 387.925781 92.414062 391.15625 90.476562 C 394.390625 88.539062 397.667969 86.679688 400.992188 84.902344 C 404.316406 83.128906 407.679688 81.433594 411.085938 79.820312 C 414.496094 78.210938 417.9375 76.683594 421.421875 75.242188 C 424.902344 73.800781 428.417969 72.445312 431.964844 71.175781 C 435.515625 69.902344 439.09375 68.722656 442.699219 67.628906 C 446.304688 66.535156 449.9375 65.53125 453.59375 64.613281 C 457.246094 63.699219 460.925781 62.871094 464.621094 62.136719 C 468.316406 61.402344 472.027344 60.757812 475.757812 60.203125 C 479.484375 59.652344 483.222656 59.191406 486.976562 58.820312 C 490.726562 58.453125 494.484375 58.175781 498.246094 57.988281 C 502.011719 57.804688 505.777344 57.710938 509.546875 57.710938 Z M 473.4375 412.027344 L 633.210938 412.027344 L 633.210938 163.964844 L 473.4375 163.964844 L 473.4375 219.234375 L 577.941406 219.234375 L 577.941406 356.757812 L 473.4375 356.757812 Z M 440.828125 395.492188 L 440.828125 320.234375 L 552.703125 320.234375 L 552.703125 255.757812 L 440.785156 255.757812 L 440.785156 180.453125 L 337.15625 287.996094 Z M 440.828125 395.492188 " fill-opacity="1" fill-rule="nonzero"/></g></svg>