<svg xmlns="http://www.w3.org/2000/svg" xmlns:xlink="http://www.w3.org/1999/xlink" width="1366" zoomAndPan="magnify" viewBox="0 0 1024.5 576" height="768" preserveAspectRatio="xMidYMid meet" version="1.0"><defs><clipPath id="30405c713f"><path d="M 328.566406 104.742188 L 695.433594 104.742188 L 695.433594 471.609375 L 328.566406 471.609375 Z M 328.566406 104.742188 " clip-rule="nonzero"/></clipPath><clipPath id="3399210ac3"><path d="M 512 104.742188 C 410.691406 104.742188 328.566406 186.867188 328.566406 288.175781 C 328.566406 389.484375 410.691406 471.609375 512 471.609375 C 613.308594 471.609375 695.433594 389.484375 695.433594 288.175781 C 695.433594 186.867188 613.308594 104.742188 512 104.742188 Z M 512 104.742188 " clip-rule="nonzero"/></clipPath><clipPath id="b246eeeb7d"><path d="M 281.535156 57.710938 L 742.5625 57.710938 L 742.5625 518.738281 L 281.535156 518.738281 Z M 281.535156 57.710938 " clip-rule="nonzero"/></clipPath></defs><g clip-path="url(#30405c713f)"><g clip-path="url(#3399210ac3)"><path fill="#181d47" d="M 328.566406 104.742188 L 695.433594 104.742188 L 695.433594 471.609375 L 328.566406 471.609375 Z M 328.566406 104.742188 " fill-opacity="1" fill-rule="nonzero"/></g></g><g clip-path="url(#b246eeeb7d)"><path fill="#ffffff" d="M 511.996094 57.710938 C 384.921875 57.710938 281.535156 161.097656 281.535156 288.171875 C 281.535156 415.246094 384.921875 518.632812 511.996094 518.632812 C 639.070312 518.632812 742.457031 415.246094 742.457031 288.171875 C 742.457031 161.097656 639.070312 57.710938 511.996094 57.710938 Z M 511.996094 117.832031 C 550.671875 117.832031 582.136719 149.296875 582.136719 187.972656 C 582.136719 226.648438 550.671875 258.113281 511.996094 258.113281 C 473.320312 258.113281 441.855469 226.648438 441.855469 187.972656 C 441.855469 149.296875 473.320312 117.832031 511.996094 117.832031 Z M 632.234375 418.433594 L 391.757812 418.433594 C 386.226562 418.433594 381.738281 413.941406 381.738281 408.410156 C 381.738281 336.589844 440.171875 278.152344 511.996094 278.152344 C 583.820312 278.152344 642.257812 336.589844 642.257812 408.410156 C 642.257812 413.941406 637.765625 418.433594 632.234375 418.433594 Z M 632.234375 418.433594 " fill-opacity="1" fill-rule="nonzero"/></g></svg>