<svg xmlns="http://www.w3.org/2000/svg" xmlns:xlink="http://www.w3.org/1999/xlink" width="1366" zoomAndPan="magnify" viewBox="0 0 1024.5 576" height="768" preserveAspectRatio="xMidYMid meet" version="1.0"><defs><clipPath id="f9d5b56629"><path d="M 281.710938 448 L 737 448 L 737 462 L 281.710938 462 Z M 281.710938 448 " clip-rule="nonzero"/></clipPath><clipPath id="955bc2802a"><path d="M 708 428 L 741.988281 428 L 741.988281 482 L 708 482 Z M 708 428 " clip-rule="nonzero"/></clipPath><clipPath id="8388b24e76"><path d="M 498 63 L 513 63 L 513 517.988281 L 498 517.988281 Z M 498 63 " clip-rule="nonzero"/></clipPath><clipPath id="72f66e288a"><path d="M 479 57.710938 L 533 57.710938 L 533 92 L 479 92 Z M 479 57.710938 " clip-rule="nonzero"/></clipPath></defs><g clip-path="url(#f9d5b56629)"><path fill="#ffffff" d="M 729.386719 461.589844 L 288.371094 461.589844 C 284.683594 461.589844 281.710938 458.617188 281.710938 454.929688 C 281.710938 451.246094 284.683594 448.273438 288.371094 448.273438 L 729.386719 448.273438 C 733.070312 448.273438 736.042969 451.246094 736.042969 454.929688 C 736.042969 458.617188 733.070312 461.589844 729.386719 461.589844 Z M 729.386719 461.589844 " fill-opacity="1" fill-rule="nonzero"/></g><g clip-path="url(#955bc2802a)"><path fill="#ffffff" d="M 715.105469 481.394531 C 713.433594 481.394531 711.757812 480.765625 710.460938 479.507812 C 707.820312 476.957031 707.78125 472.726562 710.335938 470.089844 L 724.234375 455.8125 L 710.082031 439.441406 C 707.695312 436.675781 707.988281 432.449219 710.753906 430.0625 C 713.558594 427.675781 717.746094 427.96875 720.132812 430.730469 L 742.28125 456.3125 L 719.878906 479.339844 C 718.582031 480.722656 716.824219 481.394531 715.105469 481.394531 Z M 715.105469 481.394531 " fill-opacity="1" fill-rule="nonzero"/></g><g clip-path="url(#8388b24e76)"><path fill="#ffffff" d="M 505.546875 518.28125 C 501.863281 518.28125 498.890625 515.308594 498.890625 511.625 L 498.890625 70.609375 C 498.890625 66.921875 501.863281 63.949219 505.546875 63.949219 C 509.234375 63.949219 512.207031 66.921875 512.207031 70.609375 L 512.207031 511.625 C 512.207031 515.308594 509.234375 518.28125 505.546875 518.28125 Z M 505.546875 518.28125 " fill-opacity="1" fill-rule="nonzero"/></g><g clip-path="url(#72f66e288a)"><path fill="#ffffff" d="M 485.746094 91.542969 C 483.859375 91.542969 482.019531 90.746094 480.71875 89.242188 C 478.332031 86.476562 478.625 82.25 481.390625 79.863281 L 506.972656 57.710938 L 530 80.113281 C 532.636719 82.667969 532.679688 86.894531 530.125 89.535156 C 527.570312 92.171875 523.34375 92.214844 520.707031 89.660156 L 506.429688 75.800781 L 490.058594 89.953125 C 488.84375 91 487.292969 91.542969 485.746094 91.542969 Z M 485.746094 91.542969 " fill-opacity="1" fill-rule="nonzero"/></g><path fill="#ffffff" d="M 505.339844 458.742188 C 492.066406 458.742188 478.292969 450.117188 463.261719 432.363281 C 426.371094 388.859375 388.019531 296.203125 362.355469 226.15625 C 338.824219 161.96875 313.953125 82.835938 314.875 77.601562 C 315.5 73.957031 318.933594 71.570312 322.578125 72.199219 C 325.632812 72.742188 327.8125 75.257812 328.0625 78.230469 C 329.527344 85.304688 356.449219 177.335938 392.792969 268.609375 C 453.964844 422.316406 489.511719 445.425781 505.339844 445.425781 C 505.382812 445.425781 505.421875 445.425781 505.464844 445.425781 C 521.332031 445.300781 557.339844 421.183594 620.1875 261.285156 C 656.613281 168.667969 684.207031 74.878906 684.5 73.957031 C 685.546875 70.441406 689.230469 68.390625 692.789062 69.4375 C 696.308594 70.484375 698.359375 74.167969 697.3125 77.683594 C 697.019531 78.648438 669.257812 172.9375 632.625 266.140625 C 581.792969 395.433594 540.257812 458.449219 505.589844 458.742188 C 505.507812 458.742188 505.421875 458.742188 505.339844 458.742188 Z M 505.339844 458.742188 " fill-opacity="1" fill-rule="nonzero"/></svg>