<svg xmlns="http://www.w3.org/2000/svg" xmlns:xlink="http://www.w3.org/1999/xlink" width="1366" zoomAndPan="magnify" viewBox="0 0 1024.5 576" height="768" preserveAspectRatio="xMidYMid meet" version="1.0"><defs><clipPath id="43adae77e5"><path d="M 254.324219 68.65625 L 769 68.65625 L 769 558.257812 L 254.324219 558.257812 Z M 254.324219 68.65625 " clip-rule="nonzero"/></clipPath><clipPath id="ce3bd7f503"><path d="M 281.710938 473 L 737 473 L 737 488 L 281.710938 488 Z M 281.710938 473 " clip-rule="nonzero"/></clipPath><clipPath id="d71f111a55"><path d="M 708 453 L 741.988281 453 L 741.988281 507 L 708 507 Z M 708 453 " clip-rule="nonzero"/></clipPath><clipPath id="f4d58f4922"><path d="M 498 89 L 513 89 L 513 543.445312 L 498 543.445312 Z M 498 89 " clip-rule="nonzero"/></clipPath><clipPath id="d42248e8bc"><path d="M 479 83.167969 L 533 83.167969 L 533 117 L 479 117 Z M 479 83.167969 " clip-rule="nonzero"/></clipPath></defs><g clip-path="url(#43adae77e5)"><path fill="#f6a50f" d="M 254.324219 68.65625 L 768.789062 68.65625 L 768.789062 558.257812 L 254.324219 558.257812 Z M 254.324219 68.65625 " fill-opacity="1" fill-rule="nonzero"/></g><g clip-path="url(#ce3bd7f503)"><path fill="#151c47" d="M 729.386719 487.042969 L 288.371094 487.042969 C 284.683594 487.042969 281.710938 484.070312 281.710938 480.386719 C 281.710938 476.703125 284.683594 473.730469 288.371094 473.730469 L 729.386719 473.730469 C 733.070312 473.730469 736.042969 476.703125 736.042969 480.386719 C 736.042969 484.070312 733.070312 487.042969 729.386719 487.042969 Z M 729.386719 487.042969 " fill-opacity="1" fill-rule="nonzero"/></g><g clip-path="url(#d71f111a55)"><path fill="#151c47" d="M 715.105469 506.847656 C 713.433594 506.847656 711.757812 506.222656 710.460938 504.964844 C 707.820312 502.410156 707.78125 498.183594 710.335938 495.542969 L 724.234375 481.265625 L 710.082031 464.894531 C 707.695312 462.132812 707.988281 457.902344 710.753906 455.515625 C 713.558594 453.128906 717.746094 453.421875 720.132812 456.1875 L 742.28125 481.769531 L 719.878906 504.796875 C 718.582031 506.179688 716.824219 506.847656 715.105469 506.847656 Z M 715.105469 506.847656 " fill-opacity="1" fill-rule="nonzero"/></g><g clip-path="url(#f4d58f4922)"><path fill="#151c47" d="M 505.546875 543.734375 C 501.863281 543.734375 498.890625 540.761719 498.890625 537.078125 L 498.890625 96.0625 C 498.890625 92.378906 501.863281 89.40625 505.546875 89.40625 C 509.234375 89.40625 512.207031 92.378906 512.207031 96.0625 L 512.207031 537.078125 C 512.207031 540.761719 509.234375 543.734375 505.546875 543.734375 Z M 505.546875 543.734375 " fill-opacity="1" fill-rule="nonzero"/></g><g clip-path="url(#d42248e8bc)"><path fill="#151c47" d="M 485.746094 117 C 483.859375 117 482.019531 116.203125 480.71875 114.695312 C 478.332031 111.933594 478.625 107.703125 481.390625 105.316406 L 506.972656 83.167969 L 530 105.570312 C 532.636719 108.121094 532.679688 112.351562 530.125 114.988281 C 527.570312 117.628906 523.34375 117.667969 520.707031 115.113281 L 506.429688 101.257812 L 490.058594 115.40625 C 488.84375 116.453125 487.292969 117 485.746094 117 Z M 485.746094 117 " fill-opacity="1" fill-rule="nonzero"/></g><path fill="#151c47" d="M 505.339844 484.199219 C 492.066406 484.199219 478.292969 475.570312 463.261719 457.820312 C 426.371094 414.316406 388.019531 321.660156 362.355469 251.609375 C 338.824219 187.425781 313.953125 108.289062 314.875 103.054688 C 315.5 99.414062 318.933594 97.027344 322.578125 97.65625 C 325.632812 98.199219 327.8125 100.710938 328.0625 103.683594 C 329.527344 110.761719 356.449219 202.789062 392.792969 294.066406 C 453.964844 447.769531 489.511719 470.882812 505.339844 470.882812 C 505.382812 470.882812 505.421875 470.882812 505.464844 470.882812 C 521.332031 470.757812 557.339844 446.640625 620.1875 286.738281 C 656.613281 194.125 684.207031 100.335938 684.5 99.414062 C 685.546875 95.898438 689.230469 93.84375 692.789062 94.890625 C 696.308594 95.9375 698.359375 99.621094 697.3125 103.140625 C 697.019531 104.101562 669.257812 198.394531 632.625 291.597656 C 581.792969 420.890625 540.257812 483.90625 505.589844 484.199219 C 505.507812 484.199219 505.421875 484.199219 505.339844 484.199219 Z M 505.339844 484.199219 " fill-opacity="1" fill-rule="nonzero"/></svg>