<svg xmlns="http://www.w3.org/2000/svg" xmlns:xlink="http://www.w3.org/1999/xlink" width="1366" zoomAndPan="magnify" viewBox="0 0 1024.5 576" height="768" preserveAspectRatio="xMidYMid meet" version="1.0"><defs><g/><clipPath id="6a64ef86e5"><path d="M 110 163.960938 L 289 163.960938 L 289 343 L 110 343 Z M 110 163.960938 " clip-rule="nonzero"/></clipPath><clipPath id="b3bfd9f69d"><path d="M 281 335 L 359 335 L 359 412.089844 L 281 412.089844 Z M 281 335 " clip-rule="nonzero"/></clipPath><clipPath id="86a679765e"><path d="M 131.636719 185.507812 L 197.601562 185.507812 L 197.601562 251.472656 L 131.636719 251.472656 Z M 131.636719 185.507812 " clip-rule="nonzero"/></clipPath><clipPath id="e0b1aef08a"><path d="M 200.878906 185.507812 L 266.777344 185.507812 L 266.777344 251.472656 L 200.878906 251.472656 Z M 200.878906 185.507812 " clip-rule="nonzero"/></clipPath><clipPath id="4ba5cc7260"><path d="M 131.636719 254.34375 L 197.601562 254.34375 L 197.601562 320.242188 L 131.636719 320.242188 Z M 131.636719 254.34375 " clip-rule="nonzero"/></clipPath><clipPath id="8be3887cb0"><path d="M 200.878906 254.34375 L 266.777344 254.34375 L 266.777344 320.242188 L 200.878906 320.242188 Z M 200.878906 254.34375 " clip-rule="nonzero"/></clipPath><clipPath id="f2212503dc"><path d="M 213.980469 261.820312 L 243.214844 261.820312 L 243.214844 295.550781 L 213.980469 295.550781 Z M 213.980469 261.820312 " clip-rule="nonzero"/></clipPath><clipPath id="1c57e8d83a"><path d="M 149 264.703125 L 192 264.703125 L 192 293.941406 L 149 293.941406 Z M 149 264.703125 " clip-rule="nonzero"/></clipPath></defs><g clip-path="url(#6a64ef86e5)"><path fill="#f6a50f" d="M 199.253906 163.976562 C 150.089844 163.976562 110.097656 203.96875 110.097656 253.128906 C 110.097656 302.292969 150.089844 342.285156 199.253906 342.285156 C 248.414062 342.285156 288.40625 302.292969 288.40625 253.128906 C 288.40625 203.96875 248.414062 163.976562 199.253906 163.976562 Z M 199.253906 328.273438 C 157.816406 328.273438 124.109375 294.566406 124.109375 253.128906 C 124.109375 211.695312 157.816406 177.984375 199.253906 177.984375 C 240.6875 177.984375 274.398438 211.695312 274.398438 253.128906 C 274.398438 294.566406 240.6875 328.273438 199.253906 328.273438 Z M 199.253906 328.273438 " fill-opacity="1" fill-rule="nonzero"/></g><path fill="#f6a50f" d="M 288.570312 329.957031 L 272.835938 314.21875 C 268.925781 318.921875 264.574219 323.242188 259.847656 327.121094 L 275.832031 343.105469 C 276.84375 340.199219 278.507812 337.472656 280.828125 335.152344 L 281.273438 334.707031 C 283.382812 332.601562 285.863281 331 288.570312 329.957031 Z M 288.570312 329.957031 " fill-opacity="1" fill-rule="nonzero"/><g clip-path="url(#b3bfd9f69d)"><path fill="#f6a50f" d="M 306.519531 339.320312 C 303.777344 336.578125 300.113281 335.070312 296.203125 335.070312 C 292.292969 335.070312 288.628906 336.578125 285.886719 339.320312 L 285.441406 339.769531 C 282.699219 342.507812 281.191406 346.171875 281.191406 350.082031 C 281.191406 353.992188 282.699219 357.65625 285.441406 360.398438 L 332.859375 407.816406 C 335.601562 410.558594 339.265625 412.066406 343.175781 412.066406 C 347.085938 412.066406 350.75 410.558594 353.492188 407.816406 L 353.9375 407.371094 C 359.625 401.683594 359.625 392.425781 353.9375 386.738281 Z M 306.519531 339.320312 " fill-opacity="1" fill-rule="nonzero"/></g><g clip-path="url(#86a679765e)"><path fill="#f6a50f" d="M 131.636719 251.402344 C 131.636719 215.007812 161.140625 185.507812 197.53125 185.507812 L 197.53125 251.402344 L 131.636719 251.402344 " fill-opacity="1" fill-rule="nonzero"/></g><g clip-path="url(#e0b1aef08a)"><path fill="#f6a50f" d="M 266.777344 251.402344 C 266.777344 215.007812 237.273438 185.507812 200.878906 185.507812 L 200.878906 251.402344 L 266.777344 251.402344 " fill-opacity="1" fill-rule="nonzero"/></g><g clip-path="url(#4ba5cc7260)"><path fill="#f6a50f" d="M 131.636719 254.34375 C 131.636719 290.738281 161.140625 320.242188 197.53125 320.242188 L 197.53125 254.34375 L 131.636719 254.34375 " fill-opacity="1" fill-rule="nonzero"/></g><g clip-path="url(#8be3887cb0)"><path fill="#f6a50f" d="M 266.777344 254.34375 C 266.777344 290.738281 237.273438 320.242188 200.878906 320.242188 L 200.878906 254.34375 L 266.777344 254.34375 " fill-opacity="1" fill-rule="nonzero"/></g><g clip-path="url(#f2212503dc)"><path fill="#181d47" d="M 243.441406 295.867188 L 213.980469 295.867188 L 229.398438 261.816406 Z M 237.640625 293.855469 L 227.855469 270.109375 L 217.046875 293.855469 Z M 237.640625 293.855469 " fill-opacity="1" fill-rule="nonzero"/></g><g clip-path="url(#1c57e8d83a)"><path fill="#181d47" d="M 169.199219 264.703125 C 168.855469 264.703125 168.546875 264.808594 168.273438 265.011719 C 168 265.21875 167.816406 265.484375 167.71875 265.8125 L 161.382812 287.351562 L 158.308594 278.121094 C 158.203125 277.804688 158.015625 277.546875 157.746094 277.355469 C 157.476562 277.160156 157.171875 277.0625 156.839844 277.0625 L 150.660156 277.0625 C 150.457031 277.0625 150.257812 277.101562 150.070312 277.179688 C 149.878906 277.257812 149.714844 277.371094 149.570312 277.515625 C 149.425781 277.660156 149.3125 277.828125 149.234375 278.015625 C 149.15625 278.207031 149.117188 278.402344 149.117188 278.609375 C 149.117188 278.8125 149.15625 279.011719 149.234375 279.199219 C 149.3125 279.386719 149.425781 279.554688 149.570312 279.699219 C 149.714844 279.84375 149.878906 279.957031 150.070312 280.035156 C 150.257812 280.113281 150.457031 280.152344 150.660156 280.152344 L 155.726562 280.152344 L 160.007812 293 C 160.113281 293.316406 160.300781 293.570312 160.570312 293.765625 C 160.839844 293.960938 161.144531 294.058594 161.476562 294.058594 L 161.503906 294.058594 C 161.839844 294.050781 162.144531 293.945312 162.410156 293.742188 C 162.679688 293.535156 162.863281 293.269531 162.957031 292.949219 L 170.355469 267.792969 L 190.054688 267.792969 C 190.261719 267.792969 190.457031 267.753906 190.648438 267.675781 C 190.835938 267.597656 191.003906 267.484375 191.148438 267.339844 C 191.292969 267.195312 191.40625 267.027344 191.484375 266.839844 C 191.5625 266.652344 191.601562 266.453125 191.601562 266.25 C 191.601562 266.042969 191.5625 265.847656 191.484375 265.65625 C 191.40625 265.46875 191.292969 265.300781 191.148438 265.15625 C 191.003906 265.011719 190.835938 264.898438 190.648438 264.820312 C 190.457031 264.742188 190.261719 264.703125 190.054688 264.703125 Z M 169.199219 264.703125 " fill-opacity="1" fill-rule="nonzero"/></g><g fill="#181d47" fill-opacity="1"><g transform="translate(216.975386, 237.495415)"><g><path d="M 9.8125 -13.21875 L 14.5 -22.46875 L 19.640625 -22.46875 L 12.1875 -8.75 L 12.1875 0 L 7.453125 0 L 7.453125 -8.59375 L 0 -22.46875 L 5.15625 -22.46875 Z M 9.8125 -13.21875 "/></g></g></g><g fill="#181d47" fill-opacity="1"><g transform="translate(160.219475, 237.495415)"><g><path d="M 20.984375 0 L 15.546875 0 L 10.328125 -8.5 L 5.09375 0 L 0 0 L 7.453125 -11.578125 L 0.46875 -22.46875 L 5.734375 -22.46875 L 10.578125 -14.375 L 15.3125 -22.46875 L 20.453125 -22.46875 L 13.40625 -11.328125 Z M 20.984375 0 "/></g></g></g><g fill="#f6a50f" fill-opacity="1"><g transform="translate(336.384351, 255.456304)"><g><path d="M 46.15625 0 L 3.09375 0 L 3.09375 -77.3125 L 46.15625 -77.3125 C 50.351562 -77.3125 54.203125 -76.28125 57.703125 -74.21875 C 61.203125 -72.15625 63.984375 -69.390625 66.046875 -65.921875 C 68.109375 -62.460938 69.140625 -58.640625 69.140625 -54.453125 C 69.140625 -51.359375 68.566406 -48.46875 67.421875 -45.78125 C 66.273438 -43.09375 64.75 -40.71875 62.84375 -38.65625 C 64.75 -36.59375 66.273438 -34.21875 67.421875 -31.53125 C 68.566406 -28.84375 69.140625 -25.953125 69.140625 -22.859375 C 69.140625 -18.660156 68.109375 -14.832031 66.046875 -11.375 C 63.984375 -7.914062 61.203125 -5.15625 57.703125 -3.09375 C 54.203125 -1.03125 50.351562 0 46.15625 0 Z M 17.453125 -62.953125 L 17.453125 -45.828125 L 46.15625 -45.828125 C 48.519531 -45.828125 50.546875 -46.65625 52.234375 -48.3125 C 53.929688 -49.96875 54.78125 -52.015625 54.78125 -54.453125 C 54.78125 -56.804688 53.929688 -58.8125 52.234375 -60.46875 C 50.546875 -62.125 48.519531 -62.953125 46.15625 -62.953125 Z M 17.453125 -31.46875 L 17.453125 -14.359375 L 46.15625 -14.359375 C 48.519531 -14.359375 50.546875 -15.1875 52.234375 -16.84375 C 53.929688 -18.5 54.78125 -20.503906 54.78125 -22.859375 C 54.78125 -25.285156 53.929688 -27.328125 52.234375 -28.984375 C 50.546875 -30.640625 48.519531 -31.46875 46.15625 -31.46875 Z M 17.453125 -31.46875 "/></g></g></g><g fill="#f6a50f" fill-opacity="1"><g transform="translate(408.60938, 255.456304)"><g><path d="M 17.34375 -31.46875 L 17.34375 0 L 3.09375 0 L 3.09375 -77.3125 L 17.34375 -77.3125 L 17.34375 -45.828125 L 54.78125 -45.828125 L 54.78125 -77.3125 L 69.015625 -77.3125 L 69.015625 0 L 54.78125 0 L 54.78125 -31.46875 Z M 17.34375 -31.46875 "/></g></g></g><g fill="#f6a50f" fill-opacity="1"><g transform="translate(480.723989, 255.456304)"><g><path d="M 22.859375 -14.359375 L 18.109375 0 L 3.09375 0 L 28.609375 -77.3125 L 43.625 -77.3125 L 69.140625 0 L 54 0 L 49.359375 -14.359375 Z M 36.109375 -54.453125 L 27.609375 -28.609375 L 44.609375 -28.609375 Z M 36.109375 -54.453125 "/></g></g></g><g fill="#f6a50f" fill-opacity="1"><g transform="translate(552.949019, 255.456304)"><g><path d="M 46.15625 -14.359375 C 48.519531 -14.359375 50.546875 -15.1875 52.234375 -16.84375 C 53.929688 -18.5 54.78125 -20.503906 54.78125 -22.859375 C 54.78125 -25.285156 53.929688 -27.328125 52.234375 -28.984375 C 50.546875 -30.640625 48.519531 -31.46875 46.15625 -31.46875 L 25.953125 -31.46875 C 21.753906 -31.46875 17.925781 -32.5 14.46875 -34.5625 C 11.007812 -36.625 8.25 -39.382812 6.1875 -42.84375 C 4.125 -46.3125 3.09375 -50.179688 3.09375 -54.453125 C 3.09375 -58.640625 4.125 -62.460938 6.1875 -65.921875 C 8.25 -69.390625 11.007812 -72.15625 14.46875 -74.21875 C 17.925781 -76.28125 21.753906 -77.3125 25.953125 -77.3125 L 46.15625 -77.3125 C 50.425781 -77.3125 54.289062 -76.28125 57.75 -74.21875 C 61.21875 -72.15625 63.984375 -69.390625 66.046875 -65.921875 C 68.109375 -62.460938 69.140625 -58.640625 69.140625 -54.453125 L 54.78125 -54.453125 C 54.78125 -56.804688 53.929688 -58.8125 52.234375 -60.46875 C 50.546875 -62.125 48.519531 -62.953125 46.15625 -62.953125 L 25.953125 -62.953125 C 23.597656 -62.953125 21.59375 -62.125 19.9375 -60.46875 C 18.28125 -58.8125 17.453125 -56.804688 17.453125 -54.453125 C 17.453125 -52.015625 18.28125 -49.96875 19.9375 -48.3125 C 21.59375 -46.65625 23.597656 -45.828125 25.953125 -45.828125 L 46.15625 -45.828125 C 50.425781 -45.828125 54.289062 -44.796875 57.75 -42.734375 C 61.21875 -40.671875 63.984375 -37.910156 66.046875 -34.453125 C 68.109375 -30.992188 69.140625 -27.128906 69.140625 -22.859375 C 69.140625 -18.660156 68.109375 -14.832031 66.046875 -11.375 C 63.984375 -7.914062 61.21875 -5.15625 57.75 -3.09375 C 54.289062 -1.03125 50.425781 0 46.15625 0 L 25.953125 0 C 21.753906 0 17.925781 -1.03125 14.46875 -3.09375 C 11.007812 -5.15625 8.25 -7.914062 6.1875 -11.375 C 4.125 -14.832031 3.09375 -18.660156 3.09375 -22.859375 L 17.453125 -22.859375 C 17.453125 -20.503906 18.28125 -18.5 19.9375 -16.84375 C 21.59375 -15.1875 23.597656 -14.359375 25.953125 -14.359375 Z M 46.15625 -14.359375 "/></g></g></g><g fill="#f6a50f" fill-opacity="1"><g transform="translate(625.174048, 255.456304)"><g><path d="M 19.984375 0 L 3.09375 0 L 3.09375 -77.3125 L 17.453125 -77.3125 L 17.453125 -22.53125 L 27.609375 -38.65625 L 36.109375 -52.015625 L 52.125 -77.3125 L 69.140625 -77.3125 L 44.5 -38.65625 L 69.140625 0 L 52.125 0 L 36.109375 -25.296875 Z M 19.984375 0 "/></g></g></g><g fill="#f6a50f" fill-opacity="1"><g transform="translate(697.399077, 255.456304)"><g><path d="M 22.859375 -14.359375 L 18.109375 0 L 3.09375 0 L 28.609375 -77.3125 L 43.625 -77.3125 L 69.140625 0 L 54 0 L 49.359375 -14.359375 Z M 36.109375 -54.453125 L 27.609375 -28.609375 L 44.609375 -28.609375 Z M 36.109375 -54.453125 "/></g></g></g><g fill="#f6a50f" fill-opacity="1"><g transform="translate(769.624107, 255.456304)"><g><path d="M 3.09375 0 L 3.09375 -77.3125 L 38.984375 -77.3125 C 43.179688 -77.3125 47.082031 -76.535156 50.6875 -74.984375 C 54.300781 -73.441406 57.488281 -71.289062 60.25 -68.53125 C 63.007812 -65.769531 65.179688 -62.566406 66.765625 -58.921875 C 68.347656 -55.273438 69.140625 -51.390625 69.140625 -47.265625 C 69.140625 -41.960938 67.847656 -37.082031 65.265625 -32.625 C 62.691406 -28.175781 59.34375 -24.585938 55.21875 -21.859375 L 69.140625 0 L 52.125 0 L 41.1875 -17.234375 C 40.53125 -17.234375 39.796875 -17.234375 38.984375 -17.234375 L 17.453125 -17.234375 L 17.453125 0 Z M 17.453125 -62.953125 L 17.453125 -31.46875 L 38.984375 -31.46875 C 42.078125 -31.46875 44.910156 -32.316406 47.484375 -34.015625 C 49.691406 -35.410156 51.457031 -37.269531 52.78125 -39.59375 C 54.113281 -41.914062 54.78125 -44.472656 54.78125 -47.265625 C 54.78125 -50.140625 54.078125 -52.769531 52.671875 -55.15625 C 51.273438 -57.550781 49.378906 -59.445312 46.984375 -60.84375 C 44.597656 -62.25 41.929688 -62.953125 38.984375 -62.953125 Z M 17.453125 -62.953125 "/></g></g></g><g fill="#f6a50f" fill-opacity="1"><g transform="translate(841.849114, 255.456304)"><g><path d="M 22.859375 -14.359375 L 18.109375 0 L 3.09375 0 L 28.609375 -77.3125 L 43.625 -77.3125 L 69.140625 0 L 54 0 L 49.359375 -14.359375 Z M 36.109375 -54.453125 L 27.609375 -28.609375 L 44.609375 -28.609375 Z M 36.109375 -54.453125 "/></g></g></g><g fill="#f6a50f" fill-opacity="1"><g transform="translate(517.038712, 372.317672)"><g><path d="M 28.9375 0 L 28.9375 -62.953125 L 3.09375 -62.953125 L 3.09375 -77.3125 L 69.015625 -77.3125 L 69.015625 -62.953125 L 43.296875 -62.953125 L 43.296875 0 Z M 28.9375 0 "/></g></g></g><g fill="#f6a50f" fill-opacity="1"><g transform="translate(589.153321, 372.317672)"><g><path d="M 17.453125 0 L 3.09375 0 L 3.09375 -77.3125 L 69.015625 -77.3125 L 69.015625 -62.953125 L 17.453125 -62.953125 L 17.453125 -45.828125 L 54.78125 -45.828125 L 54.78125 -31.46875 L 17.453125 -31.46875 L 17.453125 -14.359375 L 69.015625 -14.359375 L 69.015625 0 Z M 17.453125 0 "/></g></g></g><g fill="#f6a50f" fill-opacity="1"><g transform="translate(661.26793, 372.317672)"><g><path d="M 69.015625 -11.375 C 65.265625 -7.539062 61.03125 -4.6875 56.3125 -2.8125 C 51.601562 -0.9375 46.742188 0 41.734375 0 C 36.734375 0 31.875 -0.9375 27.15625 -2.8125 C 22.445312 -4.6875 18.21875 -7.539062 14.46875 -11.375 C 10.632812 -15.125 7.78125 -19.351562 5.90625 -24.0625 C 4.03125 -28.78125 3.09375 -33.640625 3.09375 -38.640625 C 3.09375 -43.648438 4.03125 -48.507812 5.90625 -53.21875 C 7.78125 -57.9375 10.632812 -62.210938 14.46875 -66.046875 C 18.21875 -69.796875 22.445312 -72.609375 27.15625 -74.484375 C 31.875 -76.367188 36.734375 -77.3125 41.734375 -77.3125 C 46.742188 -77.3125 51.601562 -76.367188 56.3125 -74.484375 C 61.03125 -72.609375 65.265625 -69.757812 69.015625 -65.9375 L 58.96875 -55.875 C 55.800781 -59.039062 52.140625 -61.15625 47.984375 -62.21875 C 43.828125 -63.289062 39.664062 -63.289062 35.5 -62.21875 C 31.34375 -61.15625 27.679688 -59.039062 24.515625 -55.875 C 21.347656 -52.707031 19.226562 -49.046875 18.15625 -44.890625 C 17.09375 -40.734375 17.09375 -36.570312 18.15625 -32.40625 C 19.226562 -28.25 21.347656 -24.585938 24.515625 -21.421875 C 27.679688 -18.253906 31.34375 -16.132812 35.5 -15.0625 C 39.664062 -14 43.828125 -14 47.984375 -15.0625 C 52.140625 -16.132812 55.800781 -18.253906 58.96875 -21.421875 Z M 69.015625 -11.375 "/></g></g></g></svg>