<svg xmlns="http://www.w3.org/2000/svg" xmlns:xlink="http://www.w3.org/1999/xlink" width="1366" zoomAndPan="magnify" viewBox="0 0 1024.5 576" height="768" preserveAspectRatio="xMidYMid meet" version="1.0"><defs><g/><clipPath id="cf4b8eea36"><path d="M 110 163.960938 L 289 163.960938 L 289 343 L 110 343 Z M 110 163.960938 " clip-rule="nonzero"/></clipPath><clipPath id="bafc40e10c"><path d="M 281 335 L 359 335 L 359 412.226562 L 281 412.226562 Z M 281 335 " clip-rule="nonzero"/></clipPath><clipPath id="fcfd4e4cb8"><path d="M 131.636719 185.507812 L 197.539062 185.507812 L 197.539062 251.410156 L 131.636719 251.410156 Z M 131.636719 185.507812 " clip-rule="nonzero"/></clipPath><clipPath id="9c36df56b6"><path d="M 200.878906 185.507812 L 266.769531 185.507812 L 266.769531 251.410156 L 200.878906 251.410156 Z M 200.878906 185.507812 " clip-rule="nonzero"/></clipPath><clipPath id="a5e784a2bf"><path d="M 131.636719 254.34375 L 197.539062 254.34375 L 197.539062 320.234375 L 131.636719 320.234375 Z M 131.636719 254.34375 " clip-rule="nonzero"/></clipPath><clipPath id="01b226bf93"><path d="M 200.878906 254.34375 L 266.769531 254.34375 L 266.769531 320.234375 L 200.878906 320.234375 Z M 200.878906 254.34375 " clip-rule="nonzero"/></clipPath><clipPath id="a6d80487d8"><path d="M 213.980469 261.820312 L 243.769531 261.820312 L 243.769531 296 L 213.980469 296 Z M 213.980469 261.820312 " clip-rule="nonzero"/></clipPath><clipPath id="324f6d4a38"><path d="M 149 264.703125 L 192 264.703125 L 192 294.496094 L 149 294.496094 Z M 149 264.703125 " clip-rule="nonzero"/></clipPath></defs><g clip-path="url(#cf4b8eea36)"><path fill="#181d47" d="M 199.253906 163.976562 C 150.089844 163.976562 110.097656 203.96875 110.097656 253.132812 C 110.097656 302.292969 150.089844 342.285156 199.253906 342.285156 C 248.417969 342.285156 288.410156 302.292969 288.410156 253.132812 C 288.410156 203.96875 248.417969 163.976562 199.253906 163.976562 Z M 199.253906 328.277344 C 157.820312 328.277344 124.109375 294.566406 124.109375 253.132812 C 124.109375 211.695312 157.820312 177.988281 199.253906 177.988281 C 240.6875 177.988281 274.398438 211.695312 274.398438 253.132812 C 274.398438 294.566406 240.6875 328.277344 199.253906 328.277344 Z M 199.253906 328.277344 " fill-opacity="1" fill-rule="nonzero"/></g><path fill="#181d47" d="M 288.574219 329.957031 L 272.835938 314.222656 C 268.925781 318.921875 264.578125 323.242188 259.851562 327.121094 L 275.832031 343.105469 C 276.847656 340.199219 278.511719 337.472656 280.828125 335.15625 L 281.277344 334.707031 C 283.382812 332.601562 285.867188 331 288.574219 329.957031 Z M 288.574219 329.957031 " fill-opacity="1" fill-rule="nonzero"/><g clip-path="url(#bafc40e10c)"><path fill="#181d47" d="M 306.523438 339.320312 C 303.78125 336.582031 300.117188 335.070312 296.207031 335.070312 C 292.296875 335.070312 288.632812 336.582031 285.890625 339.320312 L 285.445312 339.769531 C 282.703125 342.511719 281.191406 346.171875 281.191406 350.085938 C 281.191406 353.996094 282.703125 357.660156 285.445312 360.398438 L 332.863281 407.820312 C 335.605469 410.558594 339.269531 412.070312 343.179688 412.070312 C 347.089844 412.070312 350.753906 410.558594 353.496094 407.820312 L 353.941406 407.371094 C 359.628906 401.683594 359.628906 392.429688 353.941406 386.738281 Z M 306.523438 339.320312 " fill-opacity="1" fill-rule="nonzero"/></g><g clip-path="url(#fcfd4e4cb8)"><path fill="#181d47" d="M 131.636719 251.398438 C 131.636719 215.007812 161.136719 185.507812 197.527344 185.507812 L 197.527344 251.398438 L 131.636719 251.398438 " fill-opacity="1" fill-rule="nonzero"/></g><g clip-path="url(#9c36df56b6)"><path fill="#181d47" d="M 266.769531 251.398438 C 266.769531 215.007812 237.269531 185.507812 200.878906 185.507812 L 200.878906 251.398438 L 266.769531 251.398438 " fill-opacity="1" fill-rule="nonzero"/></g><g clip-path="url(#a5e784a2bf)"><path fill="#181d47" d="M 131.636719 254.34375 C 131.636719 290.734375 161.136719 320.234375 197.527344 320.234375 L 197.527344 254.34375 L 131.636719 254.34375 " fill-opacity="1" fill-rule="nonzero"/></g><g clip-path="url(#01b226bf93)"><path fill="#181d47" d="M 266.769531 254.34375 C 266.769531 290.734375 237.269531 320.234375 200.878906 320.234375 L 200.878906 254.34375 L 266.769531 254.34375 " fill-opacity="1" fill-rule="nonzero"/></g><g clip-path="url(#a6d80487d8)"><path fill="#fcc521" d="M 243.4375 295.867188 L 213.980469 295.867188 L 229.394531 261.820312 Z M 237.640625 293.855469 L 227.855469 270.113281 L 217.046875 293.855469 Z M 237.640625 293.855469 " fill-opacity="1" fill-rule="nonzero"/></g><g clip-path="url(#324f6d4a38)"><path fill="#fcc521" d="M 169.195312 264.703125 C 168.855469 264.703125 168.546875 264.808594 168.269531 265.011719 C 167.996094 265.21875 167.8125 265.484375 167.714844 265.8125 L 161.378906 287.351562 L 158.304688 278.121094 C 158.199219 277.804688 158.011719 277.550781 157.742188 277.355469 C 157.472656 277.160156 157.167969 277.0625 156.835938 277.0625 L 150.65625 277.0625 C 150.453125 277.0625 150.253906 277.101562 150.066406 277.179688 C 149.875 277.261719 149.707031 277.371094 149.5625 277.515625 C 149.417969 277.660156 149.308594 277.828125 149.230469 278.015625 C 149.152344 278.207031 149.113281 278.402344 149.113281 278.609375 C 149.113281 278.8125 149.152344 279.011719 149.230469 279.199219 C 149.308594 279.390625 149.417969 279.554688 149.5625 279.703125 C 149.707031 279.847656 149.875 279.957031 150.066406 280.035156 C 150.253906 280.113281 150.453125 280.152344 150.65625 280.152344 L 155.722656 280.152344 L 160.003906 293.003906 C 160.109375 293.316406 160.296875 293.574219 160.566406 293.765625 C 160.835938 293.960938 161.140625 294.058594 161.472656 294.058594 L 161.5 294.058594 C 161.835938 294.050781 162.140625 293.945312 162.40625 293.742188 C 162.675781 293.539062 162.859375 293.273438 162.953125 292.949219 L 170.351562 267.792969 L 190.054688 267.792969 C 190.257812 267.792969 190.457031 267.753906 190.644531 267.675781 C 190.835938 267.597656 191 267.484375 191.144531 267.339844 C 191.292969 267.195312 191.402344 267.03125 191.480469 266.839844 C 191.558594 266.652344 191.597656 266.453125 191.597656 266.25 C 191.597656 266.042969 191.558594 265.847656 191.480469 265.65625 C 191.402344 265.46875 191.292969 265.300781 191.144531 265.15625 C 191 265.011719 190.835938 264.898438 190.644531 264.820312 C 190.457031 264.742188 190.257812 264.703125 190.054688 264.703125 Z M 169.195312 264.703125 " fill-opacity="1" fill-rule="nonzero"/></g><g fill="#fcc521" fill-opacity="1"><g transform="translate(216.975386, 237.49537)"><g><path d="M 9.8125 -13.21875 L 14.5 -22.46875 L 19.640625 -22.46875 L 12.1875 -8.75 L 12.1875 0 L 7.453125 0 L 7.453125 -8.59375 L 0 -22.46875 L 5.15625 -22.46875 Z M 9.8125 -13.21875 "/></g></g></g><g fill="#fcc521" fill-opacity="1"><g transform="translate(160.219475, 237.49537)"><g><path d="M 20.984375 0 L 15.546875 0 L 10.328125 -8.5 L 5.09375 0 L 0 0 L 7.453125 -11.578125 L 0.46875 -22.46875 L 5.734375 -22.46875 L 10.578125 -14.375 L 15.3125 -22.46875 L 20.453125 -22.46875 L 13.40625 -11.328125 Z M 20.984375 0 "/></g></g></g><g fill="#181d47" fill-opacity="1"><g transform="translate(336.384351, 255.456335)"><g><path d="M 46.15625 0 L 3.09375 0 L 3.09375 -77.3125 L 46.15625 -77.3125 C 50.351562 -77.3125 54.203125 -76.28125 57.703125 -74.21875 C 61.203125 -72.15625 63.984375 -69.390625 66.046875 -65.921875 C 68.109375 -62.460938 69.140625 -58.640625 69.140625 -54.453125 C 69.140625 -51.359375 68.566406 -48.46875 67.421875 -45.78125 C 66.273438 -43.09375 64.75 -40.71875 62.84375 -38.65625 C 64.75 -36.59375 66.273438 -34.21875 67.421875 -31.53125 C 68.566406 -28.84375 69.140625 -25.953125 69.140625 -22.859375 C 69.140625 -18.660156 68.109375 -14.832031 66.046875 -11.375 C 63.984375 -7.914062 61.203125 -5.15625 57.703125 -3.09375 C 54.203125 -1.03125 50.351562 0 46.15625 0 Z M 17.453125 -62.953125 L 17.453125 -45.828125 L 46.15625 -45.828125 C 48.519531 -45.828125 50.546875 -46.65625 52.234375 -48.3125 C 53.929688 -49.96875 54.78125 -52.015625 54.78125 -54.453125 C 54.78125 -56.804688 53.929688 -58.8125 52.234375 -60.46875 C 50.546875 -62.125 48.519531 -62.953125 46.15625 -62.953125 Z M 17.453125 -31.46875 L 17.453125 -14.359375 L 46.15625 -14.359375 C 48.519531 -14.359375 50.546875 -15.1875 52.234375 -16.84375 C 53.929688 -18.5 54.78125 -20.503906 54.78125 -22.859375 C 54.78125 -25.285156 53.929688 -27.328125 52.234375 -28.984375 C 50.546875 -30.640625 48.519531 -31.46875 46.15625 -31.46875 Z M 17.453125 -31.46875 "/></g></g></g><g fill="#181d47" fill-opacity="1"><g transform="translate(408.60938, 255.456335)"><g><path d="M 17.34375 -31.46875 L 17.34375 0 L 3.09375 0 L 3.09375 -77.3125 L 17.34375 -77.3125 L 17.34375 -45.828125 L 54.78125 -45.828125 L 54.78125 -77.3125 L 69.015625 -77.3125 L 69.015625 0 L 54.78125 0 L 54.78125 -31.46875 Z M 17.34375 -31.46875 "/></g></g></g><g fill="#181d47" fill-opacity="1"><g transform="translate(480.723989, 255.456335)"><g><path d="M 22.859375 -14.359375 L 18.109375 0 L 3.09375 0 L 28.609375 -77.3125 L 43.625 -77.3125 L 69.140625 0 L 54 0 L 49.359375 -14.359375 Z M 36.109375 -54.453125 L 27.609375 -28.609375 L 44.609375 -28.609375 Z M 36.109375 -54.453125 "/></g></g></g><g fill="#181d47" fill-opacity="1"><g transform="translate(552.949019, 255.456335)"><g><path d="M 46.15625 -14.359375 C 48.519531 -14.359375 50.546875 -15.1875 52.234375 -16.84375 C 53.929688 -18.5 54.78125 -20.503906 54.78125 -22.859375 C 54.78125 -25.285156 53.929688 -27.328125 52.234375 -28.984375 C 50.546875 -30.640625 48.519531 -31.46875 46.15625 -31.46875 L 25.953125 -31.46875 C 21.753906 -31.46875 17.925781 -32.5 14.46875 -34.5625 C 11.007812 -36.625 8.25 -39.382812 6.1875 -42.84375 C 4.125 -46.3125 3.09375 -50.179688 3.09375 -54.453125 C 3.09375 -58.640625 4.125 -62.460938 6.1875 -65.921875 C 8.25 -69.390625 11.007812 -72.15625 14.46875 -74.21875 C 17.925781 -76.28125 21.753906 -77.3125 25.953125 -77.3125 L 46.15625 -77.3125 C 50.425781 -77.3125 54.289062 -76.28125 57.75 -74.21875 C 61.21875 -72.15625 63.984375 -69.390625 66.046875 -65.921875 C 68.109375 -62.460938 69.140625 -58.640625 69.140625 -54.453125 L 54.78125 -54.453125 C 54.78125 -56.804688 53.929688 -58.8125 52.234375 -60.46875 C 50.546875 -62.125 48.519531 -62.953125 46.15625 -62.953125 L 25.953125 -62.953125 C 23.597656 -62.953125 21.59375 -62.125 19.9375 -60.46875 C 18.28125 -58.8125 17.453125 -56.804688 17.453125 -54.453125 C 17.453125 -52.015625 18.28125 -49.96875 19.9375 -48.3125 C 21.59375 -46.65625 23.597656 -45.828125 25.953125 -45.828125 L 46.15625 -45.828125 C 50.425781 -45.828125 54.289062 -44.796875 57.75 -42.734375 C 61.21875 -40.671875 63.984375 -37.910156 66.046875 -34.453125 C 68.109375 -30.992188 69.140625 -27.128906 69.140625 -22.859375 C 69.140625 -18.660156 68.109375 -14.832031 66.046875 -11.375 C 63.984375 -7.914062 61.21875 -5.15625 57.75 -3.09375 C 54.289062 -1.03125 50.425781 0 46.15625 0 L 25.953125 0 C 21.753906 0 17.925781 -1.03125 14.46875 -3.09375 C 11.007812 -5.15625 8.25 -7.914062 6.1875 -11.375 C 4.125 -14.832031 3.09375 -18.660156 3.09375 -22.859375 L 17.453125 -22.859375 C 17.453125 -20.503906 18.28125 -18.5 19.9375 -16.84375 C 21.59375 -15.1875 23.597656 -14.359375 25.953125 -14.359375 Z M 46.15625 -14.359375 "/></g></g></g><g fill="#181d47" fill-opacity="1"><g transform="translate(625.174048, 255.456335)"><g><path d="M 19.984375 0 L 3.09375 0 L 3.09375 -77.3125 L 17.453125 -77.3125 L 17.453125 -22.53125 L 27.609375 -38.65625 L 36.109375 -52.015625 L 52.125 -77.3125 L 69.140625 -77.3125 L 44.5 -38.65625 L 69.140625 0 L 52.125 0 L 36.109375 -25.296875 Z M 19.984375 0 "/></g></g></g><g fill="#181d47" fill-opacity="1"><g transform="translate(697.399077, 255.456335)"><g><path d="M 22.859375 -14.359375 L 18.109375 0 L 3.09375 0 L 28.609375 -77.3125 L 43.625 -77.3125 L 69.140625 0 L 54 0 L 49.359375 -14.359375 Z M 36.109375 -54.453125 L 27.609375 -28.609375 L 44.609375 -28.609375 Z M 36.109375 -54.453125 "/></g></g></g><g fill="#181d47" fill-opacity="1"><g transform="translate(769.624107, 255.456335)"><g><path d="M 3.09375 0 L 3.09375 -77.3125 L 38.984375 -77.3125 C 43.179688 -77.3125 47.082031 -76.535156 50.6875 -74.984375 C 54.300781 -73.441406 57.488281 -71.289062 60.25 -68.53125 C 63.007812 -65.769531 65.179688 -62.566406 66.765625 -58.921875 C 68.347656 -55.273438 69.140625 -51.390625 69.140625 -47.265625 C 69.140625 -41.960938 67.847656 -37.082031 65.265625 -32.625 C 62.691406 -28.175781 59.34375 -24.585938 55.21875 -21.859375 L 69.140625 0 L 52.125 0 L 41.1875 -17.234375 C 40.53125 -17.234375 39.796875 -17.234375 38.984375 -17.234375 L 17.453125 -17.234375 L 17.453125 0 Z M 17.453125 -62.953125 L 17.453125 -31.46875 L 38.984375 -31.46875 C 42.078125 -31.46875 44.910156 -32.316406 47.484375 -34.015625 C 49.691406 -35.410156 51.457031 -37.269531 52.78125 -39.59375 C 54.113281 -41.914062 54.78125 -44.472656 54.78125 -47.265625 C 54.78125 -50.140625 54.078125 -52.769531 52.671875 -55.15625 C 51.273438 -57.550781 49.378906 -59.445312 46.984375 -60.84375 C 44.597656 -62.25 41.929688 -62.953125 38.984375 -62.953125 Z M 17.453125 -62.953125 "/></g></g></g><g fill="#181d47" fill-opacity="1"><g transform="translate(841.849114, 255.456335)"><g><path d="M 22.859375 -14.359375 L 18.109375 0 L 3.09375 0 L 28.609375 -77.3125 L 43.625 -77.3125 L 69.140625 0 L 54 0 L 49.359375 -14.359375 Z M 36.109375 -54.453125 L 27.609375 -28.609375 L 44.609375 -28.609375 Z M 36.109375 -54.453125 "/></g></g></g><g fill="#181d47" fill-opacity="1"><g transform="translate(517.038712, 372.317703)"><g><path d="M 28.9375 0 L 28.9375 -62.953125 L 3.09375 -62.953125 L 3.09375 -77.3125 L 69.015625 -77.3125 L 69.015625 -62.953125 L 43.296875 -62.953125 L 43.296875 0 Z M 28.9375 0 "/></g></g></g><g fill="#181d47" fill-opacity="1"><g transform="translate(589.153321, 372.317703)"><g><path d="M 17.453125 0 L 3.09375 0 L 3.09375 -77.3125 L 69.015625 -77.3125 L 69.015625 -62.953125 L 17.453125 -62.953125 L 17.453125 -45.828125 L 54.78125 -45.828125 L 54.78125 -31.46875 L 17.453125 -31.46875 L 17.453125 -14.359375 L 69.015625 -14.359375 L 69.015625 0 Z M 17.453125 0 "/></g></g></g><g fill="#181d47" fill-opacity="1"><g transform="translate(661.26793, 372.317703)"><g><path d="M 69.015625 -11.375 C 65.265625 -7.539062 61.03125 -4.6875 56.3125 -2.8125 C 51.601562 -0.9375 46.742188 0 41.734375 0 C 36.734375 0 31.875 -0.9375 27.15625 -2.8125 C 22.445312 -4.6875 18.21875 -7.539062 14.46875 -11.375 C 10.632812 -15.125 7.78125 -19.351562 5.90625 -24.0625 C 4.03125 -28.78125 3.09375 -33.640625 3.09375 -38.640625 C 3.09375 -43.648438 4.03125 -48.507812 5.90625 -53.21875 C 7.78125 -57.9375 10.632812 -62.210938 14.46875 -66.046875 C 18.21875 -69.796875 22.445312 -72.609375 27.15625 -74.484375 C 31.875 -76.367188 36.734375 -77.3125 41.734375 -77.3125 C 46.742188 -77.3125 51.601562 -76.367188 56.3125 -74.484375 C 61.03125 -72.609375 65.265625 -69.757812 69.015625 -65.9375 L 58.96875 -55.875 C 55.800781 -59.039062 52.140625 -61.15625 47.984375 -62.21875 C 43.828125 -63.289062 39.664062 -63.289062 35.5 -62.21875 C 31.34375 -61.15625 27.679688 -59.039062 24.515625 -55.875 C 21.347656 -52.707031 19.226562 -49.046875 18.15625 -44.890625 C 17.09375 -40.734375 17.09375 -36.570312 18.15625 -32.40625 C 19.226562 -28.25 21.347656 -24.585938 24.515625 -21.421875 C 27.679688 -18.253906 31.34375 -16.132812 35.5 -15.0625 C 39.664062 -14 43.828125 -14 47.984375 -15.0625 C 52.140625 -16.132812 55.800781 -18.253906 58.96875 -21.421875 Z M 69.015625 -11.375 "/></g></g></g></svg>