<svg xmlns="http://www.w3.org/2000/svg" xmlns:xlink="http://www.w3.org/1999/xlink" width="1366" zoomAndPan="magnify" viewBox="0 0 1024.5 576" height="768" preserveAspectRatio="xMidYMid meet" version="1.0"><defs><clipPath id="6371959e36"><path d="M 307 57.710938 L 718 57.710938 L 718 517.988281 L 307 517.988281 Z M 307 57.710938 " clip-rule="nonzero"/></clipPath></defs><g clip-path="url(#6371959e36)"><path fill="#181d47" d="M 702.878906 286.199219 C 698.5625 280.800781 694.242188 275.042969 690.285156 268.566406 C 689.566406 267.128906 688.484375 265.328125 687.40625 263.886719 C 681.289062 253.09375 674.8125 242.300781 676.613281 233.304688 C 681.648438 207.039062 678.769531 184.007812 667.976562 160.621094 C 632.714844 84.339844 563.628906 65.269531 535.5625 60.949219 C 522.96875 58.792969 510.375 57.710938 497.78125 57.710938 C 497.78125 57.710938 497.78125 57.710938 497.421875 57.710938 C 473.3125 57.710938 449.925781 60.949219 428.695312 67.789062 C 424.019531 69.226562 419.339844 71.027344 415.023438 72.824219 C 357.09375 96.574219 313.195312 155.582031 308.15625 216.390625 C 305.640625 248.417969 313.554688 279.71875 330.464844 304.90625 C 333.34375 309.226562 335.863281 313.183594 338.382812 317.5 C 341.621094 322.898438 345.21875 328.296875 349.175781 334.414062 C 370.765625 364.277344 399.550781 424.726562 391.277344 468.984375 C 388.398438 485.175781 380.480469 497.410156 368.246094 505.328125 C 365.726562 507.125 364.289062 510.363281 365.367188 513.242188 C 366.449219 516.121094 368.96875 518.28125 372.207031 518.28125 L 561.828125 518.28125 C 564.707031 518.28125 567.226562 516.480469 568.304688 513.960938 C 569.386719 511.445312 569.027344 508.566406 567.226562 506.40625 C 548.15625 484.457031 544.558594 462.148438 546.359375 432.644531 C 576.941406 449.914062 609.324219 460.710938 640.269531 463.589844 C 649.265625 464.308594 658.261719 462.148438 664.738281 457.113281 C 670.496094 452.792969 674.8125 447.035156 676.613281 440.558594 C 679.492188 430.125 678.050781 418.609375 676.972656 409.253906 C 676.613281 405.65625 675.890625 401.339844 675.890625 398.460938 C 676.253906 398.460938 676.613281 398.460938 676.972656 398.101562 C 680.929688 397.382812 690.285156 395.582031 690.285156 386.585938 C 690.285156 383.347656 688.847656 380.46875 687.046875 378.3125 C 689.566406 377.953125 692.085938 377.230469 693.882812 375.792969 C 703.957031 368.234375 698.199219 355.640625 694.601562 347.367188 C 693.164062 344.128906 689.925781 336.570312 691.003906 335.492188 C 692.804688 333.695312 695.683594 332.972656 698.921875 331.535156 L 700.71875 330.816406 C 701.078125 330.457031 701.800781 330.457031 702.519531 330.09375 C 706.117188 329.015625 711.515625 327.214844 715.113281 321.820312 C 717.992188 317.5 718.351562 311.746094 716.191406 306.707031 C 713.3125 299.152344 708.277344 293.035156 702.878906 286.199219 Z M 703.597656 314.261719 C 702.878906 315.34375 700.71875 316.0625 698.5625 316.78125 C 697.839844 317.140625 697.121094 317.140625 696.402344 317.5 L 694.960938 318.222656 C 690.644531 319.660156 685.96875 321.460938 682.007812 325.058594 C 673.375 333.332031 678.410156 344.847656 682.367188 353.484375 C 683.808594 356.722656 686.328125 362.121094 685.96875 364.277344 C 684.527344 364.636719 682.367188 364.636719 680.929688 364.636719 C 675.890625 364.636719 668.695312 364.996094 667.257812 371.472656 C 666.175781 376.871094 670.136719 380.828125 673.734375 384.429688 C 673.734375 384.429688 673.734375 384.429688 674.09375 384.789062 C 670.496094 385.507812 665.816406 386.945312 664.019531 391.265625 C 661.859375 396.300781 662.578125 403.136719 663.660156 411.414062 C 664.738281 419.691406 665.816406 429.40625 663.660156 436.960938 C 662.578125 440.199219 660.421875 443.4375 657.183594 445.957031 C 653.222656 448.835938 648.1875 450.273438 642.429688 449.554688 C 611.84375 447.035156 580.179688 435.882812 550.316406 418.25 L 548.875 417.53125 C 547.4375 416.8125 546.359375 416.09375 544.917969 415.011719 C 544.917969 415.011719 544.917969 415.011719 544.558594 415.011719 C 529.804688 405.65625 524.769531 397.742188 525.128906 393.0625 C 525.488281 389.105469 522.609375 385.507812 518.652344 385.148438 C 514.695312 384.789062 511.09375 387.667969 510.734375 391.625 C 510.015625 402.417969 517.570312 413.574219 533.402344 424.367188 C 530.527344 455.3125 532.324219 480.5 547.796875 504.246094 L 391.277344 504.246094 C 398.472656 495.253906 403.507812 484.457031 406.027344 471.863281 C 415.023438 422.929688 384.4375 357.800781 361.410156 326.136719 C 357.453125 320.378906 354.214844 314.984375 350.976562 309.585938 C 348.457031 305.269531 345.578125 300.949219 342.699219 296.632812 C 327.585938 274.324219 320.390625 246.257812 322.910156 217.472656 C 326.867188 162.058594 367.167969 107.726562 420.421875 86.136719 C 424.378906 84.339844 428.695312 82.898438 433.015625 81.460938 C 452.804688 75.34375 474.753906 72.105469 497.78125 72.105469 C 497.78125 72.105469 497.78125 72.105469 498.140625 72.105469 C 510.015625 72.105469 521.890625 73.183594 533.402344 74.984375 C 559.3125 79.300781 623 96.574219 655.382812 166.378906 C 665.097656 186.886719 667.257812 206.675781 662.9375 230.425781 C 660.421875 244.816406 668.335938 258.492188 675.53125 271.085938 C 676.613281 272.523438 677.332031 274.324219 678.050781 275.761719 C 682.367188 283.320312 687.40625 289.796875 691.722656 295.191406 C 696.761719 301.308594 701.078125 306.707031 703.597656 312.824219 C 703.597656 313.542969 703.597656 314.261719 703.597656 314.261719 Z M 703.597656 314.261719 " fill-opacity="1" fill-rule="nonzero"/></g><path fill="#181d47" d="M 552.472656 272.882812 C 550.675781 272.882812 549.234375 273.242188 547.4375 273.605469 L 514.332031 219.992188 C 520.089844 215.3125 524.410156 208.835938 526.207031 201.640625 L 546.359375 201.640625 C 549.234375 209.914062 557.152344 216.03125 566.507812 216.03125 C 578.382812 216.03125 588.097656 206.316406 588.097656 194.445312 C 588.097656 182.570312 578.382812 172.855469 566.507812 172.855469 C 557.152344 172.855469 549.234375 178.972656 546.359375 187.246094 L 526.207031 187.246094 C 522.96875 172.855469 510.015625 162.058594 494.542969 162.058594 C 486.269531 162.058594 479.070312 164.9375 473.3125 169.976562 L 469.714844 166.019531 C 471.15625 163.140625 471.875 159.902344 471.875 156.664062 C 471.875 150.90625 469.714844 145.507812 465.398438 141.550781 C 461.441406 137.59375 456.042969 135.074219 450.285156 135.074219 C 444.527344 135.074219 439.132812 137.230469 435.171875 141.550781 C 431.214844 145.507812 428.695312 150.90625 428.695312 156.664062 C 428.695312 162.417969 430.855469 167.816406 435.171875 171.773438 C 439.132812 175.734375 444.527344 178.25 450.285156 178.25 C 453.523438 178.25 456.761719 177.53125 459.640625 176.09375 L 465.039062 181.488281 C 463.597656 185.808594 462.519531 190.125 462.519531 194.445312 C 462.519531 202.71875 465.757812 210.277344 470.796875 215.671875 L 448.488281 251.65625 C 447.046875 251.296875 445.25 250.933594 443.449219 250.933594 C 431.574219 250.933594 421.859375 260.648438 421.859375 272.523438 C 421.859375 284.398438 431.574219 294.113281 443.449219 294.113281 C 455.324219 294.113281 465.039062 284.398438 465.039062 272.523438 C 465.039062 267.488281 463.238281 262.808594 460.359375 259.210938 L 482.308594 223.589844 C 486.269531 225.386719 490.226562 226.109375 494.902344 226.109375 C 497.0625 226.109375 499.222656 225.746094 501.378906 225.386719 L 535.5625 280.441406 C 532.683594 284.039062 530.886719 288.714844 530.886719 293.753906 C 530.886719 305.628906 540.601562 315.34375 552.472656 315.34375 C 564.347656 315.34375 574.0625 305.628906 574.0625 293.753906 C 574.0625 281.878906 564.347656 272.882812 552.472656 272.882812 Z M 566.867188 187.246094 C 570.824219 187.246094 574.0625 190.484375 574.0625 194.445312 C 574.0625 198.402344 570.824219 201.640625 566.867188 201.640625 C 562.910156 201.640625 559.671875 198.402344 559.671875 194.445312 C 559.671875 190.484375 562.910156 187.246094 566.867188 187.246094 Z M 445.25 162.058594 C 443.808594 160.621094 443.089844 158.820312 443.089844 157.023438 C 443.089844 155.222656 443.808594 153.425781 445.25 151.984375 C 446.6875 150.546875 448.488281 149.824219 450.285156 149.824219 C 452.085938 149.824219 453.882812 150.546875 455.324219 151.984375 C 456.761719 153.425781 457.480469 155.222656 457.480469 157.023438 C 457.480469 158.820312 456.761719 160.621094 455.324219 162.058594 C 452.445312 164.578125 447.765625 164.578125 445.25 162.058594 Z M 443.449219 280.082031 C 439.492188 280.082031 436.253906 276.84375 436.253906 272.882812 C 436.253906 268.925781 439.492188 265.6875 443.449219 265.6875 C 444.886719 265.6875 445.96875 266.046875 447.046875 266.765625 C 447.046875 266.765625 447.40625 267.128906 447.40625 267.128906 C 447.40625 267.128906 447.40625 267.128906 447.765625 267.128906 C 449.566406 268.566406 450.644531 270.367188 450.644531 272.882812 C 450.644531 276.84375 447.40625 280.082031 443.449219 280.082031 Z M 476.914062 194.445312 C 476.914062 184.367188 484.828125 176.453125 494.902344 176.453125 C 504.976562 176.453125 512.894531 184.367188 512.894531 194.445312 C 512.894531 204.519531 504.976562 212.433594 494.902344 212.433594 C 484.828125 212.433594 476.914062 204.519531 476.914062 194.445312 Z M 552.472656 301.667969 C 548.515625 301.667969 545.277344 298.429688 545.277344 294.472656 C 545.277344 291.953125 546.359375 290.15625 548.15625 288.714844 C 548.15625 288.714844 548.15625 288.714844 548.515625 288.714844 C 548.515625 288.714844 548.875 288.355469 548.875 288.355469 C 549.957031 287.636719 551.035156 287.277344 552.472656 287.277344 C 556.433594 287.277344 559.671875 290.515625 559.671875 294.472656 C 559.671875 298.429688 556.433594 301.667969 552.472656 301.667969 Z M 552.472656 301.667969 " fill-opacity="1" fill-rule="nonzero"/><path fill="#181d47" d="M 620.480469 184.367188 C 621.558594 181.128906 622.28125 177.890625 622.28125 174.292969 C 622.28125 161.339844 613.644531 150.1875 601.410156 146.585938 C 601.410156 146.585938 601.410156 146.585938 601.410156 146.226562 C 601.410156 130.394531 588.457031 117.441406 572.625 117.441406 C 571.183594 117.441406 569.746094 117.441406 568.304688 117.800781 C 565.066406 105.207031 553.914062 95.851562 540.242188 95.851562 C 536.28125 95.851562 532.324219 96.574219 528.367188 98.371094 C 523.328125 90.097656 514.332031 85.058594 504.257812 85.058594 C 500.300781 85.058594 496.34375 85.777344 492.746094 87.21875 C 488.425781 85.058594 483.75 83.621094 479.070312 83.621094 C 468.277344 83.621094 458.5625 89.734375 453.523438 98.730469 C 451.367188 98.011719 448.847656 98.011719 446.6875 98.011719 C 433.015625 98.011719 421.859375 107.367188 418.621094 119.960938 C 417.183594 119.601562 415.742188 119.601562 414.304688 119.601562 C 398.472656 119.601562 385.519531 132.554688 385.519531 148.386719 C 385.519531 148.386719 385.519531 148.386719 385.519531 148.746094 C 373.644531 152.34375 364.648438 163.140625 364.648438 176.453125 C 364.648438 180.050781 365.367188 183.289062 366.449219 186.527344 C 357.09375 191.207031 350.617188 200.921875 350.617188 212.433594 C 350.617188 219.269531 352.773438 225.386719 357.09375 230.425781 C 355.292969 233.664062 354.214844 237.261719 354.214844 241.21875 C 354.214844 253.09375 363.929688 262.808594 375.804688 262.808594 L 408.546875 262.808594 C 409.984375 257.410156 412.863281 252.375 416.824219 248.417969 L 376.164062 248.417969 C 372.207031 248.417969 368.96875 245.179688 368.96875 241.21875 C 368.96875 239.421875 369.6875 237.621094 371.125 236.183594 C 371.125 236.183594 371.484375 235.824219 371.484375 235.824219 C 373.285156 234.382812 374.363281 232.222656 374.363281 230.066406 C 374.363281 227.90625 373.285156 225.746094 371.484375 224.308594 C 367.886719 221.789062 365.367188 217.113281 365.367188 212.792969 C 365.367188 205.238281 371.125 199.121094 378.320312 198.402344 C 380.839844 198.042969 383.359375 196.242188 384.4375 193.722656 C 385.519531 191.207031 384.800781 188.328125 383 186.167969 C 380.839844 183.648438 379.402344 180.050781 379.402344 176.8125 C 379.402344 168.894531 385.878906 162.417969 393.792969 162.417969 C 395.953125 162.417969 398.113281 161.339844 399.550781 159.542969 C 400.992188 157.742188 401.351562 155.222656 400.632812 153.0625 C 400.269531 151.625 399.910156 150.1875 399.910156 148.746094 C 399.910156 140.832031 406.386719 134.355469 414.304688 134.355469 C 416.824219 134.355469 419.339844 135.074219 421.5 136.511719 C 424.019531 137.953125 426.898438 137.953125 429.417969 136.152344 C 431.574219 134.714844 433.015625 131.835938 432.296875 128.957031 C 432.296875 128.597656 432.296875 127.878906 432.296875 127.15625 C 432.296875 119.242188 438.773438 112.765625 446.6875 112.765625 C 449.207031 112.765625 451.726562 113.484375 454.242188 114.921875 C 456.402344 116.003906 458.921875 116.363281 461.082031 115.285156 C 463.238281 114.203125 464.679688 112.40625 465.398438 109.886719 C 466.835938 103.050781 472.59375 98.371094 479.429688 98.371094 C 482.667969 98.371094 485.90625 99.453125 488.425781 101.609375 C 490.945312 103.410156 494.183594 103.769531 497.0625 101.96875 C 499.222656 100.53125 502.101562 99.8125 504.976562 99.8125 C 511.457031 99.8125 517.570312 104.488281 519.011719 110.964844 C 519.730469 113.484375 521.53125 115.644531 524.046875 116.363281 C 526.566406 117.082031 529.085938 116.363281 531.246094 114.5625 C 533.765625 112.046875 537.363281 110.605469 541.320312 110.605469 C 549.234375 110.605469 555.710938 117.082031 555.710938 125 C 555.710938 125.71875 555.710938 126.4375 555.710938 126.796875 C 555.351562 129.675781 556.433594 132.195312 558.953125 133.992188 C 561.109375 135.433594 564.347656 135.433594 566.507812 134.355469 C 568.667969 132.914062 571.183594 132.195312 573.703125 132.195312 C 581.621094 132.195312 588.097656 138.671875 588.097656 146.585938 C 588.097656 148.027344 587.738281 149.464844 587.375 150.90625 C 586.65625 153.0625 587.015625 155.582031 588.457031 157.382812 C 589.894531 159.179688 592.054688 160.261719 594.214844 160.261719 C 602.128906 160.261719 608.605469 166.738281 608.605469 174.652344 C 608.605469 178.25 607.527344 181.488281 605.007812 184.007812 C 603.207031 186.167969 602.847656 189.046875 603.570312 191.207031 C 604.648438 193.722656 606.808594 195.523438 609.6875 195.882812 C 616.882812 196.601562 622.640625 202.71875 622.640625 210.277344 C 622.640625 215.3125 620.121094 219.632812 616.164062 222.148438 C 614.003906 223.589844 612.5625 226.109375 612.925781 228.625 C 613.285156 231.144531 614.722656 233.664062 617.242188 234.742188 C 619.761719 235.824219 621.558594 238.339844 621.558594 241.21875 C 621.558594 243.019531 620.839844 244.816406 619.402344 246.257812 C 617.242188 247.695312 615.441406 248.417969 613.644531 248.417969 L 548.875 248.417969 L 557.871094 262.808594 L 613.644531 262.808594 C 619.402344 262.808594 624.796875 260.648438 629.117188 256.332031 C 633.074219 252.375 635.234375 246.976562 635.234375 241.21875 C 635.234375 236.183594 633.433594 231.503906 630.554688 227.546875 C 634.511719 222.507812 636.671875 216.390625 636.671875 209.914062 C 636.3125 198.761719 630.195312 189.046875 620.480469 184.367188 Z M 620.480469 184.367188 " fill-opacity="1" fill-rule="nonzero"/><path fill="#181d47" d="M 484.46875 248.417969 L 477.273438 260.289062 C 477.632812 261.011719 477.992188 262.089844 478.351562 262.808594 L 507.496094 262.808594 L 498.5 248.417969 Z M 484.46875 248.417969 " fill-opacity="1" fill-rule="nonzero"/></svg>