<svg xmlns="http://www.w3.org/2000/svg" xmlns:xlink="http://www.w3.org/1999/xlink" width="1366" zoomAndPan="magnify" viewBox="0 0 1024.5 576" height="768" preserveAspectRatio="xMidYMid meet" version="1.0"><defs><clipPath id="89f9084bfd"><path d="M 326.039062 35.894531 L 808.804688 35.894531 L 808.804688 518.660156 L 326.039062 518.660156 Z M 326.039062 35.894531 " clip-rule="nonzero"/></clipPath></defs><g clip-path="url(#89f9084bfd)"><path fill="#ffffff" d="M 567.234375 35.894531 C 434.21875 35.894531 326.089844 144.121094 326.089844 277.136719 C 326.089844 410.152344 434.21875 518.285156 567.234375 518.285156 C 700.25 518.285156 808.382812 410.152344 808.382812 277.136719 C 808.382812 144.121094 700.25 35.894531 567.234375 35.894531 Z M 567.234375 479.21875 C 455.824219 479.21875 365.152344 388.546875 365.152344 277.136719 C 365.152344 165.726562 455.824219 75.058594 567.234375 75.058594 C 678.644531 75.058594 769.316406 165.726562 769.316406 277.136719 C 769.316406 388.546875 678.644531 479.21875 567.234375 479.21875 Z M 567.234375 479.21875 " fill-opacity="1" fill-rule="nonzero"/></g><path fill="#ffffff" d="M 674.59375 269.902344 L 503.667969 171.226562 C 498.171875 168.042969 491.226562 171.996094 491.226562 178.363281 L 491.226562 375.816406 C 491.226562 382.179688 498.171875 386.136719 503.667969 382.953125 L 674.691406 284.277344 C 680.1875 281.09375 680.1875 273.085938 674.59375 269.902344 Z M 674.59375 269.902344 " fill-opacity="1" fill-rule="nonzero"/></svg>