<svg xmlns="http://www.w3.org/2000/svg" xmlns:xlink="http://www.w3.org/1999/xlink" width="1366" zoomAndPan="magnify" viewBox="0 0 1024.5 576" height="768" preserveAspectRatio="xMidYMid meet" version="1.0"><defs><clipPath id="2b917bbc3a"><path d="M 270.804688 35.894531 L 753.566406 35.894531 L 753.566406 518.660156 L 270.804688 518.660156 Z M 270.804688 35.894531 " clip-rule="nonzero"/></clipPath></defs><g clip-path="url(#2b917bbc3a)"><path fill="#181d47" d="M 512 35.894531 C 378.980469 35.894531 270.851562 144.121094 270.851562 277.136719 C 270.851562 410.152344 378.980469 518.285156 512 518.285156 C 645.015625 518.285156 753.144531 410.152344 753.144531 277.136719 C 753.144531 144.121094 645.015625 35.894531 512 35.894531 Z M 512 479.21875 C 400.589844 479.21875 309.917969 388.546875 309.917969 277.136719 C 309.917969 165.726562 400.589844 75.058594 512 75.058594 C 623.410156 75.058594 714.078125 165.726562 714.078125 277.136719 C 714.078125 388.546875 623.410156 479.21875 512 479.21875 Z M 512 479.21875 " fill-opacity="1" fill-rule="nonzero"/></g><path fill="#181d47" d="M 619.355469 269.902344 L 448.433594 171.226562 C 442.933594 168.042969 435.988281 171.996094 435.988281 178.363281 L 435.988281 375.816406 C 435.988281 382.179688 442.933594 386.136719 448.433594 382.953125 L 619.453125 284.277344 C 624.953125 281.09375 624.953125 273.085938 619.355469 269.902344 Z M 619.355469 269.902344 " fill-opacity="1" fill-rule="nonzero"/></svg>